<svg width="375" height="230" viewBox="0 0 375 230" fill="none" xmlns="http://www.w3.org/2000/svg">
<path d="M1.33218 74.924H-2.53245L-7.23722 76.2682C-17.991 122.14 -39.3976 216.84 -38.9944 228.669C-38.4903 243.455 -21.0155 243.96 -9.5896 254.713C1.83626 265.467 52.7485 265.635 85.3458 270.676C117.943 275.717 206.998 278.909 241.443 282.102C269 284.656 345.228 259.866 379.898 247.152C381.914 195.512 384.737 92.0292 379.898 91.2227C373.849 90.2145 369.312 90.8866 365.951 93.239C355.366 70.3873 333.186 77.7805 328.313 80.4689C326.163 77.9149 321.592 75.4841 319.576 74.588C319.968 69.2671 318.433 55.7353 309.158 44.175C290.675 24.0117 278.577 22.6675 260.766 22.4995C246.518 22.3651 233.322 31.629 228.505 36.2777C211.87 27.2043 196.244 31.405 193.891 31.405C177.761 4.85666 149.364 -3.04062 122.648 0.992033C95.9316 5.02469 80.8091 30.7329 78.6247 33.7573C72.9118 33.4213 66.3588 33.4213 61.486 37.4539C22.1004 33.1524 4.97277 60.6417 1.33218 74.924Z" fill="#DFFAE0"/>
<path d="M45.8513 93.7595C46.5235 100.749 57.1092 106.642 62.318 108.714C75.7602 99.3044 77.2725 91.9112 74.584 86.3663C71.8956 80.8214 68.199 80.6533 65.0065 80.8214C62.4524 80.9558 60.3577 83.6778 59.6296 85.0221L59.1255 84.518C52.5724 79.3091 45.0112 85.022 45.8513 93.7595Z" fill="#4FAD59"/>
<path d="M72.4329 121.632C72.7803 125.333 78.252 128.452 80.9445 129.549C87.8928 124.568 88.6744 120.654 87.2848 117.718C85.8951 114.783 83.9844 114.694 82.3341 114.783C81.014 114.854 79.9312 116.295 79.5548 117.007L79.2943 116.74C75.907 113.982 71.9986 117.007 72.4329 121.632Z" fill="#377E4F"/>
<path d="M305.516 96.1526C304.585 101.82 311.305 108.541 314.782 111.193C326.782 106.348 329.431 100.785 328.555 95.8714C327.679 90.9577 324.944 90.1073 322.518 89.621C320.578 89.2319 318.45 90.9816 317.629 91.9051L317.355 91.408C313.515 86.0106 306.679 89.0687 305.516 96.1526Z" fill="#377E4F"/>
<path d="M1.19568 149.376H-0.652625C-1.54877 156.21 -3.47547 172.027 -4.01316 180.63C-4.68527 191.383 -7.37372 206.002 -7.8778 233.222C-8.38188 260.443 -5.35739 252.545 22.7032 286.655C50.7637 320.764 43.3705 300.097 71.4311 304.97C99.4917 309.843 116.966 301.441 168.719 296.736C220.471 292.032 177.624 287.495 233.577 274.725C289.531 261.955 278.945 269.348 344.644 278.589C397.202 285.983 388.275 258.594 377.241 243.976L386.986 210.706C386.986 208.825 385.754 205.778 385.138 204.489L378.417 195.584H368.671V170.884H355.229V179.621H342.627V196.088H330.193V186.342H317.591L285.666 196.592C281.409 196.592 269.771 196.088 257.269 194.072C241.643 191.551 211.062 190.207 208.205 189.367C205.92 188.695 119.767 180.462 76.976 176.429L53.1161 177.941V158.954H43.3705V153.745H36.9855V163.155L10.4372 165.339V154.921H1.19568V149.376Z" fill="#BDE8BD"/>
<path fill-rule="evenodd" clip-rule="evenodd" d="M28.5235 165.356C26.558 168.002 22.4521 174.83 21.6473 181.134C21.3113 184.83 16.2704 171.388 18.6228 167.019C18.6228 166.179 12.5738 172.732 10.8936 175.421C9.2133 178.109 9.54935 169.204 10.3895 167.019C11.2296 164.835 13.9181 158.618 20.8072 158.282C21.1432 156.602 10.8936 156.266 7.53303 157.274C4.17249 158.282 12.9099 148.704 19.9671 150.889C20.8072 150.385 16.4385 147.192 14.9262 146.52C13.414 145.848 11.7337 144.168 17.1106 144.504C19.743 144.672 25.6128 145.747 28.0324 148.704C28.1747 148.799 28.384 148.465 28.7436 147.892C29.6573 146.435 31.5413 143.43 35.7616 141.983C40.4664 140.37 40.5224 141.647 39.9623 142.487C38.002 144.672 34.1149 149.544 34.2494 151.561C34.2494 151.837 34.5909 151.684 35.2253 151.399C36.9032 150.645 40.6301 148.971 45.5072 151.897C50.8841 155.123 51.5562 156.826 51.2201 157.274C48.1396 156.714 41.5081 155.929 39.6262 157.274C39.6262 157.778 39.7943 158.114 40.9705 158.282C42.1467 158.45 47.8596 160.298 48.5317 167.691C49.0694 173.606 48.7557 175.309 48.5317 175.421C45.8433 171.948 39.9959 165.07 38.114 165.339C38.9541 166.011 41.8106 172.564 37.6099 181.134C37.5409 181.272 37.4741 181.412 37.4092 181.548C36.6835 183.074 36.1829 184.126 35.2575 176.261C34.5188 169.982 32.3368 167.672 31.157 166.423C30.7592 166.002 30.4753 165.702 30.3992 165.41C30.6242 183.788 31.4782 216.313 33.3932 218.739C35.4095 221.293 29.3045 218.123 26 216.219C26.9484 201.044 28.7749 169.719 28.5235 165.356Z" fill="#8ED090"/>
<path d="M20.9751 208.858C13.9851 202.137 3.94829 205.61 -0.196384 208.186H-20.6957C-24.3923 208.186 -28.2569 215.412 -30.4413 223.141C-32.6257 230.87 -28.2569 248.009 -10.9501 264.476C6.35668 280.942 20.9751 276.91 50.5479 288.671C80.1207 300.433 194.547 258.09 238.066 256.074C281.585 254.058 317.543 252.041 321.24 251.201C324.197 250.529 360.894 239.271 378.873 233.727C379.545 232.438 380.923 229.526 381.058 228.182C381.226 226.501 381.562 224.149 381.562 223.477C381.562 222.805 381.562 217.596 379.713 217.764C377.865 217.932 374.673 216.924 373.16 215.244C371.648 213.563 366.775 207.682 360.726 207.01C354.719 206.343 349.043 212.967 347.978 214.21L347.956 214.235C346.948 215.412 341.235 215.916 340.227 216.42C339.017 212.387 333.674 211.715 331.153 211.883C325.497 214.011 309.881 218.503 292.675 219.444C271.168 220.62 208.326 220.956 204.629 220.956C200.932 220.956 72.0554 220.62 65.3343 220.956C58.6132 221.292 59.1173 220.284 55.7567 217.428C45.003 208.858 36.0975 212.891 34.7533 214.739C33.6779 216.218 32.849 215.804 32.5689 215.412C32.2329 214.403 30.7542 212.488 27.5281 212.891C23.4955 213.395 22.9914 212.723 20.9751 208.858Z" fill="#8ED090"/>
<path d="M232.706 156.274L233.21 147.704C233.49 146.976 234.117 145.217 234.386 144.008C234.722 142.495 238.923 140.647 238.923 139.975C238.923 139.303 244.132 139.975 249.677 139.975C255.222 139.975 258.75 140.983 262.447 141.319C265.404 141.588 271.184 142.775 273.705 143.336L273.369 152.577C273.929 153.809 274.915 156.341 274.377 156.61C273.705 156.946 271.52 166.187 269.168 167.531C267.286 168.607 265.919 172.236 265.471 173.917L240.603 169.044L232.706 156.274Z" fill="#EFB585"/>
<path d="M247.493 161.147C241.309 158.324 237.747 152.689 236.739 150.225C237.971 149.889 240.57 149.217 241.107 149.217C241.78 149.217 247.493 148.713 247.997 148.545C248.501 148.377 257.07 148.04 258.582 148.04C260.095 148.04 263.791 148.545 265.639 149.217C267.118 149.754 268.16 149.889 268.496 149.889L273.033 145.352L268.832 155.434L263.287 161.987C260.599 162.883 253.676 163.969 247.493 161.147Z" fill="#D78950"/>
<path d="M227.329 137.118L220.608 137.959C211.367 118.804 207.67 108.05 209.518 94.2715C211.367 80.4932 225.649 61.5061 249.509 62.3463C271.688 64.5306 281.938 77.6368 285.635 92.2551C288.592 103.95 285.187 122.78 283.114 130.733H276.057C275.889 129.221 280.762 104.185 272.696 95.6157C266.244 88.7602 234.61 98.0241 219.6 103.513L227.329 137.118Z" fill="#4FAE5A"/>
<path d="M234.723 94.9439C219.533 98.4389 216.744 102.337 217.248 103.849C219.32 112.587 223.767 131.305 224.977 136.279C226.489 142.496 234.723 152.241 241.108 155.434C247.493 158.626 257.91 159.803 267.32 152.241C274.847 146.192 277.962 135.719 278.578 131.238V96.9603C276.729 90.5752 253.71 90.5752 234.723 94.9439Z" fill="#4B4B4C"/>
<path d="M232.37 99.3208C226.455 101.337 224.529 104.082 224.305 105.202C223.767 106.255 225.201 115.834 225.985 120.492C226.265 123.517 227.161 130.708 228.505 135.279C230.185 140.992 238.755 149.561 243.124 152.417C247.492 155.274 253.205 156.45 260.598 153.258C267.992 150.065 272.024 139.815 273.705 135.279C275.049 131.649 274.265 123.125 273.705 119.316L273.032 108.898C272.808 106.938 272.36 102.681 272.36 101.337C272.36 99.6568 270.512 97.1364 266.815 96.2963C258.75 94.616 239.763 96.8004 232.37 99.3208Z" fill="#EFB585"/>
<path d="M229.5 108.5C231.46 105.923 236.5 103.5 243.5 105.5" stroke="#3B2F2C" stroke-width="2.5" stroke-linecap="round"/>
<path d="M253.5 103.5C256.412 101.316 262.5 100 268 102.5" stroke="#3B2F2C" stroke-width="2.5" stroke-linecap="round"/>
<path d="M232 116.651C233.68 115.083 238.049 112.619 243.762 114.971" stroke="#3B2F2C" stroke-width="1.5" stroke-linecap="round"/>
<path d="M256 113C257.402 111.003 261.015 108.721 267 110.861" stroke="#3B2F2C" stroke-width="1.5" stroke-linecap="round"/>
<path d="M254.369 116C254.705 119.821 255.881 127.685 257.897 128.567C260.418 129.669 250.84 135.181 250 131.653" stroke="#D78950" stroke-width="1.5" stroke-linecap="round"/>
<mask id="mask0_4_30" style="mask-type:alpha" maskUnits="userSpaceOnUse" x="224" y="97" width="50" height="59">
<path d="M232.141 100.587C226.257 102.588 224.34 105.311 224.117 106.423C223.582 107.467 225.009 116.972 225.789 121.594C226.067 124.595 226.959 131.731 228.296 136.266C229.968 141.934 238.493 150.437 242.839 153.271C247.185 156.106 252.868 157.273 260.223 154.105C267.578 150.937 271.59 140.767 273.262 136.266C274.599 132.665 273.819 124.206 273.262 120.427L272.593 110.09C272.37 108.145 271.924 103.922 271.924 102.588C271.924 100.921 270.086 98.42 266.408 97.5864C258.385 95.9192 239.496 98.0865 232.141 100.587Z" fill="#EFB585"/>
</mask>
<g mask="url(#mask0_4_30)">
<path d="M261.62 120.79C251.988 123.829 233.193 123.488 225 122.938V125.415L229.013 142.924C231.243 145.622 237.073 152.009 242.557 155.973C248.042 159.938 258.108 157.185 262.456 155.313L272.656 146.558L276 135.326V116C275.22 116.33 271.251 117.751 261.62 120.79Z" fill="#FEFEFE"/>
<path d="M242.788 146.528C233.916 142.496 228.449 134.767 226.825 131.406L228.169 140.816L236.907 150.561L248.837 156.946C251.973 156.722 258.313 156.24 258.582 156.106C258.851 155.972 262.615 154.258 264.463 153.418C265.583 152.073 267.152 149.822 264.463 151.569C261.103 153.754 255.222 152.914 250.685 152.241C246.148 151.569 246.988 148.377 242.788 146.528Z" fill="#E2D7D5"/>
</g>
<path d="M246.484 128.213C247.022 127.676 248.052 128.549 248.501 129.054C254.381 131.238 255.726 128.213 257.07 127.373C258.145 126.701 258.302 127.765 258.246 128.381C257.406 129.166 255.558 130.902 254.886 131.574C254.045 132.414 252.197 133.758 249.005 132.918C245.812 132.078 245.812 128.886 246.484 128.213Z" fill="#E2D7D5"/>
<path d="M231.698 147.032L232.538 148.713L232.706 148.881C232.762 150.001 232.874 152.342 232.874 152.745C232.874 153.249 240.771 159.803 244.636 162.659C248.501 165.515 250.181 165.852 254.045 165.515C257.91 165.179 267.992 156.106 270.008 154.426C271.621 153.081 272.809 151.737 273.201 151.233C273.313 150.225 273.537 147.839 273.537 146.36C278.241 145.856 278.073 154.426 279.586 161.651C295.044 164.743 312.463 173.021 319.24 176.773C319.24 183.158 320.752 195.424 322.265 211.051C323.474 223.552 323.889 226.565 323.945 226.509C324.337 228.47 325.222 232.861 325.625 234.743L325.648 234.848C326.153 237.202 326.924 240.791 323.945 251.881C320.92 263.139 318.232 258.603 304.118 262.803C290.003 267.004 289.667 263.475 252.029 254.738C221.919 247.748 201.957 241.072 195.74 238.607C193.612 228.246 189.288 206.817 189.019 203.994C188.683 200.465 190.531 189.375 190.531 188.535C190.531 187.695 190.531 177.949 193.892 174.085C196.58 170.993 217.079 164.283 226.993 161.315C227.553 158.906 228.741 153.552 229.009 151.401C229.278 149.25 230.914 147.593 231.698 147.032Z" fill="#4FAE5A"/>
<path d="M277.233 163.331C288.099 166.58 310.435 173.883 312.855 177.109" stroke="#FEFEFE" stroke-width="2"/>
<path d="M228.001 169.044C218.928 171.9 201.755 177.546 198.932 179.293" stroke="#FEFEFE" stroke-width="2"/>
<path d="M275.89 167.364C284.963 169.996 303.715 176.034 306.135 179.126C308.554 182.217 311.399 186.575 312.52 188.367" stroke="#FEFEFE" stroke-width="2"/>
<path d="M271.688 162.995C276.259 160.038 277.401 155.042 277.401 152.913L278.074 152.409L278.242 153.081L279.586 161.483L278.41 167.532C276.561 169.436 272.361 173.749 270.344 175.765C267.824 178.285 265.135 177.109 267.152 175.765C270.781 173.48 273.705 169.324 274.713 167.532C275.329 166.131 276.158 163.566 274.545 164.507C272.529 165.683 268.328 165.683 271.688 162.995Z" fill="#3D8B51"/>
<path d="M226.993 165.011C218.256 167.027 201.755 173.009 198.932 174.757" stroke="#FEFEFE" stroke-width="2"/>
<path d="M256.23 165.851L253.877 166.019V182.15C241.107 181.646 237.915 178.285 232.202 173.412C227.631 169.514 226.937 164.283 227.161 162.155C223.8 163.107 217.617 165.112 219.768 165.515C222.456 166.019 225.481 167.363 227.497 170.22C229.513 173.076 231.194 174.084 236.402 178.789C241.611 183.494 252.533 184.166 256.23 184.166C259.926 184.166 259.758 183.158 259.59 182.15C259.456 181.343 257.518 181.366 256.566 181.478L256.23 165.851Z" fill="#3D8B51"/>
<path d="M255.222 206.178L207.166 187.359L215.735 222.477L240.267 233.062V239.783L271.688 233.062L301.597 220.124L303.11 232.054L313.695 236.759L318.232 209.707L308.15 193.408H287.819L255.222 206.178Z" fill="#377E4F"/>
<path d="M325.289 190.719L329.322 230.374L303.782 234.91L306.47 212.395C307.31 202.649 309.125 182.721 309.663 180.974C310.2 179.226 308.654 177.333 307.814 176.605C305.686 175.317 300.824 171.262 298.405 165.347C295.38 157.954 292.356 147.2 296.052 146.36C299.749 145.52 302.437 158.626 304.454 159.466C307.008 158.525 306.974 152.577 306.638 149.721L305.126 129.893C304.79 128.269 304.79 124.953 307.478 124.685C310.167 124.416 310.615 127.149 310.503 128.549L312.351 149.048L314.535 148.376C314.703 138.911 315.779 119.812 318.736 119.14C321.693 118.468 322.209 121.1 322.097 122.5L321.256 148.376H322.769C324.001 142.271 326.633 129.456 327.305 127.037C328.146 124.012 331.338 124.853 332.01 127.037C332.548 128.784 329.658 142.439 328.146 149.048L330.162 149.721C331.842 144.456 335.808 133.825 338.227 133.422C340.647 133.019 340.58 136.278 340.244 137.959C338.675 142.775 335.371 152.947 334.699 155.097C334.699 157.618 330.834 172.404 327.305 175.261C323.609 178.621 324.785 186.519 325.289 190.719Z" fill="#EFB585"/>
<mask id="mask1_4_30" style="mask-type:alpha" maskUnits="userSpaceOnUse" x="294" y="119" width="47" height="116">
<path d="M325.289 190.719L329.322 230.374L303.782 234.91L306.47 212.395C307.31 202.649 309.125 182.721 309.663 180.974C310.2 179.226 308.654 177.333 307.814 176.605C305.686 175.317 300.824 171.262 298.405 165.347C295.38 157.954 292.356 147.2 296.052 146.36C299.749 145.52 302.437 158.626 304.454 159.466C307.008 158.525 306.974 152.577 306.638 149.721L305.126 129.893C304.79 128.269 304.79 124.953 307.478 124.685C310.167 124.416 310.615 127.149 310.503 128.549L312.351 149.048L314.535 148.376C314.703 138.911 315.779 119.812 318.736 119.14C321.693 118.468 322.209 121.1 322.097 122.5L321.256 148.376H322.769C324.001 142.271 326.633 129.456 327.305 127.037C328.146 124.012 331.338 124.853 332.01 127.037C332.548 128.784 329.658 142.439 328.146 149.048L330.162 149.721C331.842 144.456 335.808 133.825 338.227 133.422C340.647 133.019 340.58 136.278 340.244 137.959C338.675 142.775 335.371 152.947 334.699 155.097C334.699 157.618 330.834 172.404 327.305 175.261C323.609 178.621 324.785 186.519 325.289 190.719Z" fill="#EFB585"/>
</mask>
<g mask="url(#mask1_4_30)">
<path d="M315.711 188.703C314.502 190.585 312.295 216.82 311.343 229.702H303.445C304.062 219.9 305.294 200.095 305.294 199.289V189.039C305.294 186.519 307.982 182.822 308.318 181.646C308.587 180.705 303.277 174.533 300.589 171.564L297.564 164.675C299.469 166.3 305.428 170.926 314.031 176.437C323.172 179.394 329.602 173.077 331.674 169.548C330.498 173.973 327.473 182.822 324.785 182.822C321.424 182.822 317.224 186.351 315.711 188.703Z" fill="#D78950"/>
</g>
<path d="M306 161.336C308.856 161.56 314.973 162.949 316.586 166.712M311.881 149.406C312.497 149.014 313.5 148.5 315 149" stroke="#D78950" stroke-linecap="round"/>
<path d="M320 148.219C320.56 147.995 321.983 147.749 323.193 148.555" stroke="#D78950" stroke-linecap="round"/>
<path d="M327.06 149.127C327.607 149.155 328.939 149.413 329.888 150.22" stroke="#D78950" stroke-linecap="round"/>
<path d="M156.589 149.376L155.581 126.86L116.767 152.064L117.103 162.482L116.094 165.171C115.702 169.539 114.952 178.411 115.086 178.949C115.254 179.621 116.935 182.645 117.775 183.822C118.615 184.998 120.127 191.719 120.799 195.079C121.471 198.44 128.864 196.424 135.586 198.44C140.962 200.053 148.692 198.44 151.884 197.432L159.277 190.375L161.63 165.843L156.589 149.376Z" fill="#EFB585"/>
<path d="M146.676 178.613C141.299 181.436 138.386 186.51 137.602 188.695C136.661 188.964 135.978 188.023 135.754 187.519C134.802 185.222 130.78 178.546 122.312 170.212C113.843 161.878 117.5 154 119.455 150.889C119.903 150.721 119.758 150.385 115.591 150.385C110.382 150.385 107.357 157.778 107.357 160.97C102.115 162.852 96.4356 167.915 94.2513 170.212L73.5839 176.597C74.088 178.501 75.0961 182.411 75.0961 182.814C75.0961 183.318 75.4322 192.895 75.0961 193.904C74.8273 194.71 64.7905 221.348 59.8057 234.566L77.4485 232.886L149.7 231.038H220.776C219.88 225.997 217.382 212.924 214.559 200.961C211.03 186.006 205.653 179.789 202.125 176.597C198.596 173.404 174.568 164.163 170.368 162.819C169.158 157.845 160.566 151.001 156.421 148.2C156.925 150.385 157.866 156.064 157.598 161.306C157.262 167.859 153.397 175.085 146.676 178.613Z" fill="#4FAE5A"/>
<path d="M169.359 182.982C170.703 178.277 170.479 167.803 170.199 163.155C174.064 165.171 172.216 184.158 171.712 187.687C171.207 191.215 160.958 188.359 158.101 187.687C155.245 187.014 147.012 184.158 146.171 184.158C145.499 184.158 139.506 194.912 136.594 200.289C136.314 200.849 135.552 202.17 134.746 202.977C134.608 203.115 134.462 203.173 134.312 203.169C134.021 204.147 133.638 206.827 133.233 212.891C132.393 225.493 132.393 224.148 130.209 224.989C128.024 225.829 128.361 217.763 128.865 212.891C129.268 208.992 131.385 203.201 132.393 200.793C132.337 200.065 132.595 198.171 134.073 196.424C135.552 194.676 135.138 193.343 134.746 192.895C133.961 191.775 131.956 188.627 130.209 184.998C128.024 180.461 121.471 185.838 112.734 190.879C103.997 195.92 104.165 193.399 103.829 192.391C103.56 191.585 99.2358 176.709 97.1074 169.372L99.4598 166.179C101.084 171.22 104.669 182.276 106.013 186.174C107.693 191.047 110.718 187.687 116.935 184.158C123.152 180.629 128.697 179.453 130.209 179.453C131.419 179.453 133.737 183.71 134.746 185.838C135.474 187.07 136.997 189.3 137.266 188.359C138.946 184.158 144.155 179.453 145.499 179.453C146.003 180.797 154.237 182.982 162.302 184.662C170.367 186.342 168.519 185.67 169.359 182.982Z" fill="#3C8851"/>
<path d="M196.244 212.89C197.185 217.998 196.636 228.237 196.244 232.717L202.797 233.726C202.517 231.037 201.688 223.61 200.612 215.411C199.268 205.161 197.588 202.304 195.404 203.313C193.219 204.321 195.068 206.505 196.244 212.89Z" fill="#3C8851"/>
<path d="M67.9804 149.626C67.5694 148.048 68.4945 146.431 70.0631 145.985L90.7588 140.101C92.3678 139.643 94.04 140.59 94.4757 142.205L105.473 182.969C105.917 184.613 104.905 186.296 103.245 186.675L81.903 191.55C80.3221 191.911 78.7405 190.95 78.3318 189.381L67.9804 149.626Z" fill="#3B2F2C"/>
<path d="M67.0308 194.747L56.2771 232.218L81.3132 233.226L83.1615 214.239C83.6095 209.31 84.9762 198.679 86.8581 195.588C91.0588 189.875 95.4275 190.211 99.4601 189.034C103.493 187.858 102.821 186.178 102.485 184.834C102.216 183.758 101.028 183.714 100.468 183.826C99.3481 183.882 97.8471 183.826 100.804 183.154C104.501 182.313 105.677 180.969 105.005 178.785C104.467 177.037 103.325 177.049 102.821 177.273C101.7 177.665 100.199 178.012 103.157 176.264C106.853 174.08 106.517 172.568 104.333 170.719C102.585 169.241 99.3481 170.439 97.9479 171.224C97.9479 171.168 97.9815 170.988 98.1159 170.719C98.9224 170.047 98.788 167.975 98.62 167.023C98.452 166.519 98.452 165.679 95.5955 165.679C92.739 165.679 81.1451 169.543 77.7846 170.383C74.424 171.224 74.5938 170.202 73.5 168.5C72.4202 166.82 71.6721 161.832 71 162C66.2952 163.68 67.0308 170.047 67.0308 175.088C65.6866 178.583 66.4708 189.651 67.0308 194.747Z" fill="#F2B786"/>
<rect x="78.7219" y="176.419" width="21.0047" height="1" rx="0.5" transform="rotate(-16.1306 78.7219 176.419)" fill="#D78950"/>
<rect x="81.0251" y="183.125" width="22.7564" height="1" rx="0.5" transform="rotate(-15.6136 81.0251 183.125)" fill="#D78950"/>
<rect x="83.5505" y="187.594" width="18.1479" height="1.3" rx="0.65" transform="rotate(-14.6633 83.5505 187.594)" fill="#D78950"/>
<circle cx="126.513" cy="188.022" r="2.35238" fill="#3C8851"/>
<path d="M103.121 112.41C100.432 104.748 103.121 95.9995 104.801 92.5829C104.801 92.7509 105.07 92.6501 106.145 90.9026C107.489 88.7183 107.153 89.2224 107.321 88.3822C107.489 87.5421 108.162 86.5339 109.506 84.8536C110.85 83.1734 111.018 84.0135 112.194 83.1734C113.37 82.3332 114.883 82.3332 120.26 81.8292C125.636 81.3251 131.685 80.989 136.726 80.989C141.767 80.989 143.111 81.4931 146.472 81.8292C149.832 82.1652 148.152 83.3414 151.681 91.4067C155.209 99.472 152.857 98.2958 153.361 100.648C153.865 103.001 154.705 113.082 154.705 113.586C154.705 114.09 153.865 119.803 153.865 120.139C153.865 120.475 152.689 124.004 151.681 125.18C150.672 126.356 150.672 126.86 149.664 128.709C148.656 130.557 148.488 130.221 145.464 131.901C142.439 133.582 143.447 136.438 139.919 138.454C136.39 140.471 133.87 140.471 132.357 140.471C130.845 140.471 125.132 147.864 116.563 147.696C109.707 147.561 104.969 130.613 103.457 122.156C103.625 121.204 103.793 117.921 103.121 112.41Z" fill="#EFB585"/>
<path d="M114.882 106.529C113.538 105.454 108.161 105.409 105.641 105.521L105.473 105.353C104.801 105.204 104.465 104.345 105.641 103.673C106.817 103.001 112.026 102.833 114.882 103.337C117.739 103.841 116.563 107.874 114.882 106.529Z" fill="#3B2F2C"/>
<path d="M121.94 106.697C122.478 107.773 123.732 107.145 124.292 106.697C133.03 105.353 132.677 106.577 135.55 106.697C139.583 106.865 139.415 105.689 138.575 105.017C133.534 103.337 127.821 103.841 124.964 103.841C122.108 103.841 121.268 105.353 121.94 106.697Z" fill="#3B2F2C"/>
<path d="M114.714 113.082C113.594 112.13 111.018 111.57 107.657 112.578" stroke="#3B2F2C" stroke-width="1.5" stroke-linecap="round"/>
<path d="M125.636 114.09C127.204 112.69 131.652 110.797 136.894 114.426" stroke="#3B2F2C" stroke-width="1.5" stroke-linecap="round"/>
<path d="M117.907 113.754L115.554 123.332C117.067 124.34 120.293 126.054 121.099 124.844" stroke="#D78950" stroke-width="1.5" stroke-linecap="round"/>
<path d="M116.731 129.381C114.983 129.246 114.21 127.309 114.042 126.356C113.37 125.852 111.522 127.365 114.714 130.557C117.907 133.75 120.931 132.237 122.948 131.229C124.561 130.423 123.844 129.661 123.284 129.381C121.828 129.437 118.478 129.515 116.731 129.381Z" fill="#E2D7D5"/>
<mask id="mask2_4_30" style="mask-type:alpha" maskUnits="userSpaceOnUse" x="103" y="63" width="72" height="63">
<path d="M128.479 88.6933C138.426 91.6506 143.937 89.3654 145.449 87.8532C142.761 95.9185 143.937 97.5987 143.601 98.943C143.265 100.287 145.449 102.808 148.138 106.168C147.97 112.721 149.986 121.459 152.002 125.155C154.691 126.096 155.027 123.419 154.859 121.963H156.539L168.637 114.906C176.03 105.664 176.03 94.2382 171.662 82.8123C168.167 73.6717 162.14 73.6268 159.564 74.747C161.244 62.8171 123.942 58.1123 112.18 71.2184C102.77 81.7033 103.33 90.2615 104.787 93.23C108.819 86.1729 116.045 84.9967 128.479 88.6933Z" fill="#3B2F2C"/>
</mask>
<g mask="url(#mask2_4_30)">
<path d="M128.631 88.754C138.624 91.7588 144.161 89.4369 145.68 87.9004C142.98 96.0952 144.161 97.8024 143.824 99.1682C143.486 100.534 145.68 103.095 148.381 106.509C148.213 113.167 146.356 131.244 148.381 135C151.082 135.956 156.822 124.5 155.134 122.557H156.822L168.976 115.387C176.403 105.997 176.403 94.3879 172.014 82.7787C168.503 73.4914 162.448 73.4458 159.86 74.584C161.548 62.4626 124.073 57.6824 112.257 70.9988C102.804 81.6519 103.367 90.3475 104.83 93.3636C108.881 86.1932 116.14 84.9981 128.631 88.754Z" fill="#3B2F2C"/>
<path d="M161.244 79.4522C167.024 80.662 171.829 85.8932 173.51 88.3576C174.63 87.4615 176.971 85.4339 177.374 84.493C177.878 83.3168 178.887 76.0916 177.374 74.9154C175.862 73.7392 167.629 66.01 167.293 65.6739C167.024 65.4051 161.244 62.0894 158.387 60.4651C151.162 60.8572 136.846 61.9773 137.384 63.3216C138.056 65.0018 141.08 66.8501 142.761 66.8501C144.441 66.8501 153.178 69.7066 154.187 74.2433C154.321 78.8137 158.947 79.6202 161.244 79.4522Z" fill="#51413E"/>
</g>
<mask id="mask3_4_30" style="mask-type:alpha" maskUnits="userSpaceOnUse" x="115" y="126" width="47" height="74">
<path d="M156.589 149.376L155.581 126.86L116.767 152.064L117.103 162.482L116.094 165.171C115.702 169.539 114.952 178.411 115.086 178.949C115.254 179.621 116.935 182.645 117.775 183.822C118.615 184.998 120.127 191.719 120.799 195.079C121.471 198.44 128.864 196.424 135.586 198.44C140.962 200.053 148.692 198.44 151.884 197.432L159.277 190.375L161.63 165.843L156.589 149.376Z" fill="#EFB585"/>
</mask>
<g mask="url(#mask3_4_30)">
<path d="M125.504 162.482C119.455 162.751 117.271 154.641 116.935 150.552C116.151 148.76 114.616 144.738 114.751 142.991C114.919 140.807 122.48 137.446 126.681 133.918C130.881 130.389 139.619 129.717 141.131 129.045C142.341 128.507 147.236 126.804 149.532 126.02L154.573 125.348L158.102 129.045C157.486 131.453 154.271 139.126 146.34 150.552C134.746 162.314 133.066 162.146 125.504 162.482Z" fill="#D78950"/>
</g>
<path d="M161.931 109.722C156.823 110.259 154.5 119.329 154.5 124C154.5 124.168 153.84 124.832 153 125C152.328 125.134 151.78 124.668 151.5 124.5L150.001 126.02L153.362 133.749L155.21 131.733C156.106 132.573 158.503 133.817 160.923 132.069C163.947 129.885 166.636 123.164 168.148 118.795C169.66 114.426 168.316 109.049 161.931 109.722Z" fill="#EFB585"/>
<path d="M159.578 124.508C159.712 127.062 158.178 127.812 157.394 127.868C156.89 127.98 156.554 130.221 159.578 128.709C162.603 127.196 162.434 124.844 162.098 121.147C161.762 117.451 162.434 116.947 163.107 116.779C163.779 116.611 163.275 117.451 164.115 119.131C167.139 120.139 167.139 118.123 166.803 115.098C166.534 112.679 163.443 112.634 161.93 112.914C159.074 113.082 158.234 117.451 158.402 118.627C158.536 119.568 159.242 122.94 159.578 124.508Z" fill="#D78950"/>
<path d="M103.625 131.901C102.146 127.062 103.009 121.484 103.625 119.299C143.279 123.5 150.169 117.115 149.833 118.123C149.564 118.93 152.857 128.093 154.537 132.573C154.201 134.142 151.647 139.362 144.12 147.696C133.87 156.433 121.268 156.601 118.243 155.929C115.219 155.257 113.707 153.241 111.186 149.712C108.666 146.184 105.473 137.95 103.625 131.901Z" fill="#FEFEFE"/>
<mask id="mask4_4_30" style="mask-type:alpha" maskUnits="userSpaceOnUse" x="102" y="102" width="84" height="55">
<path d="M103.625 131.901C102.147 127.062 103.009 121.484 103.625 119.299C141.069 123.266 149.299 117.794 149.817 118.02C149.551 116.234 149.202 112.371 149.833 110.394C150.637 107.873 160.286 99.8081 176.081 103.337C191.875 106.865 182.466 100.144 182.97 133.246C183.373 159.727 164.183 143.831 154.538 132.573C154.201 134.142 151.647 139.362 144.12 147.696C133.87 156.433 121.268 156.601 118.244 155.929C115.219 155.257 113.707 153.241 111.186 149.712C108.666 146.184 105.474 137.95 103.625 131.901Z" fill="#FEFEFE"/>
</mask>
<g mask="url(#mask4_4_30)">
<path d="M153.025 127.029C149.665 131.733 144.008 135.262 141.599 136.438C142.271 136.942 143.952 137.11 147.648 136.438C142.54 149.611 124.909 154.697 116.731 155.593C117.067 155.873 117.672 156.433 117.403 156.433C117.067 156.433 123.116 159.458 124.124 159.122C125.133 158.786 129.333 158.114 134.71 156.433C139.012 155.089 146.248 151.505 149.329 149.88L154.873 132.741C154.537 131.397 153.697 128.373 153.025 127.029Z" fill="#E2D7D5"/>
</g>
<path d="M116.094 129.045C113.944 128.776 113.854 127.028 114.078 126.188C112.734 126.524 112.566 128.037 114.414 130.221C116.262 132.405 119.119 133.581 122.143 131.901C124.563 130.557 124.048 129.661 123.488 129.381C121.919 129.381 118.245 129.314 116.094 129.045Z" fill="#E2D7D5"/>
<path d="M87.6981 203.817C84.3375 205.833 81.313 237.086 80.4729 237.086L90.3865 238.599C90.6105 236.022 91.2266 227.979 91.8988 216.419C96.0994 202.641 91.0586 201.801 87.6981 203.817Z" fill="#3C8851"/>
<path d="M195.74 247.672C195.74 241.251 194.179 234.893 191.148 228.96C188.116 223.028 183.673 217.638 178.072 213.097C172.47 208.557 165.82 204.955 158.502 202.498C151.183 200.041 143.339 198.776 135.418 198.776C127.496 198.776 119.652 200.041 112.334 202.498C105.015 204.955 98.3652 208.557 92.7638 213.097C87.1624 217.638 82.7191 223.028 79.6877 228.96C76.6562 234.893 75.0959 241.251 75.0959 247.672H89.9729C89.9729 242.835 91.1483 238.044 93.4321 233.575C95.716 229.106 99.0634 225.045 103.283 221.624C107.503 218.204 112.513 215.49 118.027 213.639C123.54 211.788 129.45 210.835 135.418 210.835C141.386 210.835 147.295 211.788 152.809 213.639C158.322 215.49 163.332 218.204 167.552 221.624C171.772 225.045 175.12 229.106 177.403 233.575C179.687 238.044 180.863 242.835 180.863 247.672H195.74Z" fill="#3A2E2E"/>
</svg>
