<svg width="51" height="50" viewBox="0 0 51 50" fill="none" xmlns="http://www.w3.org/2000/svg">
<path d="M24.5 49C38.031 49 49 38.031 49 24.5C49 10.969 38.031 0 24.5 0C10.969 0 0 10.969 0 24.5C0 38.031 10.969 49 24.5 49Z" fill="#CCEFDC"/>
<path d="M24.5 42.8752C34.5595 42.8752 42.7143 42.3555 42.7143 41.7144C42.7143 41.0734 34.5595 40.5537 24.5 40.5537C14.4405 40.5537 6.28571 41.0734 6.28571 41.7144C6.28571 42.3555 14.4405 42.8752 24.5 42.8752Z" fill="#99E0B9"/>
<path fill-rule="evenodd" clip-rule="evenodd" d="M15.3018 18.768V18.3216C15.3018 17.518 17.1232 12.2501 17.1232 11.5359V10.5537H15.8482V11.5359C15.8482 12.2501 15.575 12.9644 15.1196 13.5001L12.9339 16.1787C12.3875 16.8037 12.1143 17.518 12.1143 18.3216V18.6787H15.3018V18.768Z" fill="#F5A197"/>
<path d="M15.3929 25.1963H12.2054V28.6784H15.3929V25.1963Z" fill="#F5A197"/>
<path fill-rule="evenodd" clip-rule="evenodd" d="M24.7731 31.4463L21.95 41.5356H37.7964L40.5285 31.4463H24.7731Z" fill="#008E3F"/>
<path fill-rule="evenodd" clip-rule="evenodd" d="M24.4089 32.5177H40.2554L40.5286 31.4463H24.6822L24.4089 32.5177Z" fill="#006A2F"/>
<path d="M34.5179 39.8391C34.4268 39.8391 34.3357 39.8391 34.2447 39.8391C33.7893 39.6606 33.5161 39.2141 33.6982 38.7677L35.3375 34.1249C35.5197 33.6784 35.975 33.4106 36.4304 33.5891C36.8857 33.7677 37.1589 34.2141 36.9768 34.6606L35.3375 39.3034C35.2464 39.5713 34.8822 39.8391 34.5179 39.8391Z" fill="#006A2F"/>
<path d="M30.6929 39.8391C30.6018 39.8391 30.5107 39.8391 30.4196 39.8391C29.9643 39.6606 29.6911 39.2141 29.8732 38.7677L31.5125 34.1249C31.6946 33.6784 32.15 33.4106 32.6054 33.5891C33.0607 33.7677 33.3339 34.2141 33.1518 34.6606L31.5125 39.3034C31.3304 39.5713 30.9661 39.8391 30.6929 39.8391Z" fill="#006A2F"/>
<path d="M26.9589 35.7321L25.9571 38.6786C25.775 39.125 26.0482 39.5714 26.5036 39.75C26.5946 39.75 26.6857 39.75 26.7768 39.75C27.1411 39.75 27.5054 39.4821 27.5964 39.2143L29.2357 34.5714C29.3268 34.3929 29.2357 34.3036 29.2357 34.125L26.9589 35.7321Z" fill="#006A2F"/>
<path fill-rule="evenodd" clip-rule="evenodd" d="M8.5625 31.4463L11.2946 41.5356H21.95L24.7732 31.4463H8.5625Z" fill="#006A2F"/>
<path fill-rule="evenodd" clip-rule="evenodd" d="M24.4089 32.5177L24.6821 31.4463H8.5625L8.92679 32.5177H24.4089Z" fill="#4B4B4B"/>
<path d="M41.6214 28.5894H24.8643V31.4465H41.6214V28.5894Z" fill="#00B14F"/>
<path d="M41.6214 28.5894H24.8643V28.8572H41.6214V28.5894Z" fill="#4DC884"/>
<path d="M24.8643 28.5894H7.37854V31.4465H24.8643V28.5894Z" fill="#008E3F"/>
<path d="M31.6946 29.7498C32.15 29.3926 32.7874 29.2141 33.2428 29.6605C33.3338 29.7498 33.4249 29.8391 33.4249 29.9283C33.4249 29.7498 33.3338 29.6605 33.2428 29.4819C32.8785 29.0355 32.2411 28.9462 31.6946 29.3926L21.7678 36.2676H7.37851L6.92316 36.6248H21.95L31.6946 29.7498Z" fill="white"/>
<path d="M33.2428 29.5716C32.7874 29.2145 32.15 29.3037 31.6947 29.6609L21.95 36.5359L22.5875 38.6787L33.1518 31.3573C33.2429 31.268 33.3338 31.1787 33.4249 31.1787C33.7892 30.643 33.6981 30.018 33.2428 29.5716Z" fill="#99E0B9"/>
<path d="M21.95 36.625H6.92316L7.56066 38.7679H22.3143H22.5875L21.95 36.625Z" fill="#33C172"/>
<path fill-rule="evenodd" clip-rule="evenodd" d="M23.316 18.7681V18.4109C23.316 17.6074 23.0428 16.8931 22.4964 16.2681L20.3107 13.5895C19.8553 13.0538 19.5821 12.3395 19.5821 11.6252V10.6431H17.1232V11.6252C17.1232 12.3395 15.3018 17.6074 15.3018 18.4109V18.8574H23.316V18.7681Z" fill="white"/>
<path fill-rule="evenodd" clip-rule="evenodd" d="M19.5821 10.6427V9.0355C19.5821 8.58908 19.2179 8.23193 18.7625 8.23193H16.5768C16.1214 8.23193 15.7571 8.58908 15.7571 9.0355V10.6427H19.5821Z" fill="#EE6352"/>
<path fill-rule="evenodd" clip-rule="evenodd" d="M17.1232 8.23193H16.6678C16.2125 8.23193 15.8482 8.58908 15.8482 9.0355V10.6427H17.1232V8.23193Z" fill="#BE4F42"/>
<path d="M23.3161 18.7681H12.2054V25.1966H23.3161V18.7681Z" fill="#EE6352"/>
<path d="M15.3929 18.7681H12.2054V25.1966H15.3929V18.7681Z" fill="#BE4F42"/>
<path d="M23.316 25.1963H15.3018V28.5891H23.316V25.1963Z" fill="white"/>
<path d="M32.5143 15.9105C32.3321 14.4819 31.8768 12.9641 31.2393 11.6248L30.9661 11.0891C30.875 10.8212 30.6018 10.8212 30.6018 11.0891L30.3286 11.7141C29.3268 14.4819 29.0536 17.4284 29.5089 20.2855C30.1464 20.1069 30.875 20.0176 31.5125 20.1069C31.6946 18.6784 32.0589 17.3391 32.5143 15.9105Z" fill="#008E3F"/>
<path d="M32.3322 20.2856L32.5143 20.3749L32.3322 20.2856Z" fill="#008E3F"/>
<path d="M34.0625 20.7319L34.4268 20.8212L34.0625 20.7319Z" fill="#00B14F"/>
<path d="M39.8 13.9464L39.3446 14.2142C37.9785 15.1964 36.7946 16.3571 35.7928 17.6964C35.5196 18.7678 35.2464 19.9285 34.791 21C34.7 21 34.6089 20.9107 34.4268 20.9107C35.3375 21.1785 36.1571 21.7142 36.7946 22.3392C38.4339 20.1071 39.6178 17.5178 39.9821 14.8392L40.0732 14.2142C40.1643 13.9464 39.891 13.7678 39.8 13.9464Z" fill="#00B14F"/>
<path d="M35.6108 21.3569C35.7019 20.1069 35.793 18.857 35.793 17.6963C35.5197 18.857 35.2464 19.9283 34.7911 20.9999C35.0643 21.0891 35.3376 21.1783 35.6108 21.3569Z" fill="#008E3F"/>
<path d="M31.5125 20.1071C31.6947 18.9464 31.9678 17.6964 32.3321 16.5356C31.6946 17.6964 31.1482 18.8571 30.6018 20.1071C30.875 20.1071 31.2393 20.1071 31.5125 20.1071Z" fill="#006A2F"/>
<path d="M32.3321 20.2859L34.4268 20.8216C34.5179 20.8216 34.6089 20.9109 34.791 20.9109C36.066 17.4288 36.6125 13.7681 36.3393 10.1074L36.2482 9.30375C36.2482 9.03589 35.975 8.94661 35.8839 9.21447L35.4286 9.83947C33.3339 12.9645 32.0589 16.4466 31.5125 20.1074C31.7857 20.1966 32.0588 20.1966 32.3321 20.2859Z" fill="#00B14F"/>
<path d="M37.5232 28.5893L37.9786 27.1608C38.7982 24.4822 37.1589 21.625 34.4268 20.9108L32.3321 20.375C29.6 19.5715 26.6857 21.1786 25.9571 23.8572L24.5911 28.6786H37.5232V28.5893Z" fill="#F7C942"/>
<path d="M28.325 28.5895L31.4214 26.893L29.6911 23.768L32.7875 22.0716L31.7857 20.1966C29.1446 19.7502 26.5946 21.268 25.8661 23.8573L24.5 28.5895H28.325Z" fill="#F38522"/>
<path d="M28.325 28.5892L26.5946 25.5535L29.6911 23.8571L28.1429 20.9106C27.05 21.6249 26.2304 22.6071 25.9571 23.8571L24.5 28.5892H28.325Z" fill="#C7712D"/>
<path d="M34.8821 21L35.3375 21.1786L34.8821 21Z" fill="#F38522"/>
<path d="M35.7929 26.5356C36.0661 27.0713 36.2482 27.607 36.3393 28.232C35.8839 27.8749 35.5197 27.3391 35.1554 26.8927C34.8822 26.357 34.7 25.732 34.6089 25.1963C35.0643 25.4641 35.5197 25.9999 35.7929 26.5356Z" fill="#F38522"/>
<path d="M32.8786 25.7319C32.3322 25.9998 31.8768 26.4462 31.5125 26.8926C32.7875 26.7141 33.8803 26.0891 34.6088 25.1069C33.9713 25.1962 33.425 25.3748 32.8786 25.7319Z" fill="#F38522"/>
<path d="M36.3393 28.2319C36.8857 28.1426 37.3411 27.9641 37.7964 27.7855L37.9786 27.1605L38.0697 26.9819L37.7964 27.1605C37.25 27.3391 36.7036 27.7855 36.3393 28.2319Z" fill="#F38522"/>
<path d="M33.425 23.7677C33.1518 23.232 32.9696 22.6963 32.7875 22.0713C33.6982 22.8749 34.3357 23.9463 34.5178 25.107C34.1535 24.7499 33.7893 24.3034 33.425 23.7677Z" fill="#F38522"/>
<path d="M37.6143 23.4106C36.4304 23.5892 35.3375 24.2142 34.6089 25.1071C35.2464 25.0178 35.7929 24.8392 36.3393 24.5714C36.7947 24.2142 37.25 23.8571 37.6143 23.4106C37.6143 23.4999 37.6143 23.4106 37.6143 23.4106Z" fill="#F38522"/>
<path d="M35.1554 21.0891C34.8822 20.9999 34.7 20.9106 34.4268 20.8213L34.2447 20.9105C33.6982 21.1783 33.2429 21.6249 32.8786 22.0713C33.5161 21.982 34.0624 21.8034 34.6089 21.5356C34.791 21.357 34.9732 21.2677 35.1554 21.0891Z" fill="#F38522"/>
<path d="M36.7036 28.5891C36.6125 28.4998 36.4304 28.3212 36.3393 28.2319C36.3393 28.3212 36.4304 28.4998 36.4304 28.5891H36.7036Z" fill="#F38522"/>
<path d="M35.975 28.5891C36.0661 28.4998 36.2482 28.3212 36.3393 28.2319C35.8839 28.3212 35.5196 28.4105 35.0643 28.5891H35.975Z" fill="#F38522"/>
<path d="M32.0589 28.5895H32.7875C32.6964 28.5002 32.6964 28.3216 32.6054 28.2324C32.3322 27.6966 31.8768 27.2502 31.4214 26.8931C31.6036 27.4288 31.7857 28.0538 32.0589 28.5895Z" fill="#F38522"/>
<path d="M9.5643 34.9287L7.37854 36.268H9.92859L9.5643 34.9287Z" fill="#008E3F"/>
<path d="M24.8643 28.5894H7.37854V28.8572H24.8643V28.5894Z" fill="#66D095"/>
</svg>
