<svg width="23" height="22" viewBox="0 0 23 22" fill="none" xmlns="http://www.w3.org/2000/svg">
<path d="M5.5 1.5H4.5C2.97553 1.5 2.1289 2.081 1.73867 2.57871C1.53972 2.83247 1.5 3.16331 1.5 3.48576C1.5 4.9958 1.5 7.7134 1.5 9.5C1.5 11.5 4.5 11 5 11H5.5M5.5 1.5C9.5 1.5 17.9 1.5 19.5 1.5C21.1 1.5 21.5 2.5 21.5 3C21.5 7.83333 21.5 17.8 21.5 19C21.5 20.2 20.5 20.5 20 20.5C16.1667 20.5 8.2 20.5 7 20.5C5.8 20.5 5.5 19.5 5.5 19V11M5.5 1.5V11" stroke="#9A9A9A" stroke-width="1.3"/>
<path d="M9 7H17.4884" stroke="#9A9A9A" stroke-width="1.3" stroke-linecap="round"/>
<path d="M9 11H17.6964" stroke="#9A9A9A" stroke-width="1.3" stroke-linecap="round"/>
<path d="M9 15H14.1883" stroke="#9A9A9A" stroke-width="1.3" stroke-linecap="round"/>
</svg>
