<svg width="51" height="50" viewBox="0 0 51 50" fill="none" xmlns="http://www.w3.org/2000/svg">
<g clip-path="url(#clip0_20_1360)">
<path d="M25.5 50C39.5833 50 51 38.8071 51 25C51 11.1929 39.5833 0 25.5 0C11.4167 0 0 11.1929 0 25C0 38.8071 11.4167 50 25.5 50Z" fill="#CCEFDC"/>
<path d="M25.5001 41.5581C37.5653 41.5581 47.3462 41.031 47.3462 40.3807C47.3462 39.7305 37.5653 39.2034 25.5001 39.2034C13.4348 39.2034 3.65387 39.7305 3.65387 40.3807C3.65387 41.031 13.4348 41.5581 25.5001 41.5581Z" fill="#99E0B9"/>
<path d="M41.1884 40.5561H10.9359C8.55966 40.5561 6.59222 38.6273 6.59222 36.2976V14.6543C6.59222 12.3247 8.55966 10.3958 10.9359 10.3958H41.1884C43.5902 10.3958 45.5321 12.3247 45.5321 14.6543V36.2725C45.5321 38.6273 43.5646 40.5561 41.1884 40.5561Z" fill="#008E3F"/>
<path d="M41.1883 40.5561H13.6698C11.268 40.5561 9.32617 38.6273 9.32617 36.2976V14.6543C9.32617 12.3247 11.268 10.3958 13.6698 10.3958H41.1883C43.5902 10.3958 45.5321 12.3247 45.5321 14.6543V36.2725C45.5321 38.6273 43.5647 40.5561 41.1883 40.5561Z" fill="#00B14F"/>
<path d="M9.32616 19.0381H6.59222V23.5471H9.32616V19.0381Z" fill="#C6A135"/>
<path d="M45.5321 19.0381H9.32617V23.5471H45.5321V19.0381Z" fill="#F7C942"/>
<path d="M19.2766 10.4109V40.5462H23.8758V10.4109H19.2766Z" fill="#F7C942"/>
<path d="M21.3608 22.8458L27.0331 33.0161L27.9785 30.0853L31.0957 30.8619L25.3978 20.6665L21.3608 22.8458Z" fill="#FCE9B3"/>
<path d="M21.8717 22.8458L16.1739 33.0161L15.254 30.0853L12.1368 30.8619L17.8091 20.6665L21.8717 22.8458Z" fill="#FCE9B3"/>
<path d="M12.0856 16.2574V23.8727C12.0856 25.1252 13.4399 25.9017 14.5641 25.2754L21.4373 21.4678C22.5616 20.8416 22.5616 19.2634 21.4373 18.6371L14.5385 14.8546C13.4399 14.2534 12.0856 15.03 12.0856 16.2574Z" fill="#FCE9B3"/>
<path d="M31.0445 16.2574V23.8727C31.0445 25.1252 29.6903 25.9017 28.566 25.2754L21.7183 21.4928C20.5941 20.8666 20.5941 19.2885 21.7183 18.6622L28.5916 14.8546C29.6648 14.2534 31.0445 15.03 31.0445 16.2574Z" fill="#FCE9B3"/>
<path d="M31.0445 23.8729C31.0445 23.8729 30.9678 22.7957 29.4603 22.5452C27.9528 22.2947 21.9739 21.6184 21.9739 21.6184L28.5661 25.2757C28.5661 25.2757 29.4859 25.8518 30.4824 25.0753C30.4824 25.0753 31.0445 24.6745 31.0445 23.8729Z" fill="#C6A135"/>
<path d="M12.0856 23.8729C12.0856 23.8729 12.1623 22.7957 13.6698 22.5452C15.1773 22.2947 21.1563 21.6184 21.1563 21.6184L14.5385 25.3007C14.5385 25.3007 13.6187 25.8769 12.6222 25.1004C12.6222 25.0753 12.0856 24.6745 12.0856 23.8729Z" fill="#C6A135"/>
<path d="M23.2004 23.3217H20.032C19.3166 23.3217 18.7545 22.7706 18.7545 22.0692V18.0862C18.7545 17.3848 19.3166 16.8337 20.032 16.8337H23.2004C23.9158 16.8337 24.4779 17.3848 24.4779 18.0862V22.0692C24.4779 22.7455 23.8902 23.3217 23.2004 23.3217Z" fill="#FDF4D9"/>
<path d="M31.4022 37.8506H42.8236C43.3091 37.8506 43.6923 37.4748 43.6923 36.9989C43.6923 36.5229 43.3091 36.1472 42.8236 36.1472H31.4022C30.9167 36.1472 30.5335 36.5229 30.5335 36.9989C30.5079 37.4498 30.9167 37.8506 31.4022 37.8506Z" fill="#008E3F"/>
<path d="M36.7425 34.3687H42.7981C43.2835 34.3687 43.6668 33.993 43.6668 33.517C43.6668 33.041 43.2835 32.6653 42.7981 32.6653H36.7425C36.257 32.6653 35.8737 33.041 35.8737 33.517C35.8737 33.993 36.2825 34.3687 36.7425 34.3687Z" fill="#008E3F"/>
</g>
<defs>
<clipPath id="clip0_20_1360">
<rect width="51" height="50" fill="white"/>
</clipPath>
</defs>
</svg>
