<svg width="51" height="50" viewBox="0 0 51 50" fill="none" xmlns="http://www.w3.org/2000/svg">
<path d="M25.0526 50C38.8888 50 50.1053 38.8071 50.1053 25C50.1053 11.1929 38.8888 0 25.0526 0C11.2164 0 0 11.1929 0 25C0 38.8071 11.2164 50 25.0526 50Z" fill="#CCEFDC"/>
<path d="M35.5 15C35.5 13.6868 35.3319 12.3864 35.0052 11.1732C34.6786 9.95991 34.1998 8.85752 33.5962 7.92893C32.9926 7.00035 32.2761 6.26375 31.4874 5.7612C30.6988 5.25866 29.8536 5 29 5C28.1464 5 27.3012 5.25866 26.5126 5.7612C25.7239 6.26375 25.0074 7.00035 24.4038 7.92893C23.8002 8.85752 23.3214 9.95991 22.9948 11.1732C22.6681 12.3864 22.5 13.6868 22.5 15H23.6051C23.6051 13.9101 23.7447 12.8308 24.0158 11.8238C24.2869 10.8168 24.6843 9.90188 25.1853 9.13118C25.6862 8.36047 26.2809 7.74911 26.9355 7.33201C27.59 6.91491 28.2915 6.70023 29 6.70023C29.7085 6.70023 30.41 6.91491 31.0645 7.33201C31.7191 7.74911 32.3138 8.36047 32.8147 9.13118C33.3157 9.90188 33.7131 10.8168 33.9842 11.8238C34.2553 12.8308 34.3949 13.9101 34.3949 15H35.5Z" fill="#BB783F"/>
<path d="M29.5 15C29.5 13.6868 29.3319 12.3864 29.0052 11.1732C28.6786 9.95991 28.1998 8.85752 27.5962 7.92893C26.9926 7.00035 26.2761 6.26375 25.4874 5.7612C24.6988 5.25866 23.8536 5 23 5C22.1464 5 21.3012 5.25866 20.5126 5.7612C19.7239 6.26375 19.0074 7.00035 18.4038 7.92893C17.8002 8.85752 17.3214 9.95991 16.9948 11.1732C16.6681 12.3864 16.5 13.6868 16.5 15H17.6183C17.6183 13.9127 17.7575 12.8361 18.0279 11.8316C18.2984 10.827 18.6948 9.9143 19.1946 9.14547C19.6943 8.37665 20.2876 7.76678 20.9405 7.35069C21.5934 6.93461 22.2933 6.72045 23 6.72045C23.7067 6.72045 24.4066 6.93461 25.0595 7.35069C25.7124 7.76678 26.3057 8.37665 26.8054 9.14547C27.3052 9.9143 27.7016 10.827 27.972 11.8316C28.2425 12.8361 28.3817 13.9127 28.3817 15H29.5Z" fill="#BB783F"/>
<path d="M21.5 39H10L13.5 14.5H21.5H36.5L40 38.5L21.5 39Z" fill="url(#paint0_linear_21_1410)"/>
<path d="M15 33L17.5 14.5H21.5V39L15 33Z" fill="#E38A3C"/>
<path d="M10 39L13.5 14.5H17.5L15 33L10 39Z" fill="#E7A163"/>
<path d="M28.8752 20.7661C28.6738 20.2131 28.9913 19.6066 29.5605 19.4569L35.9091 17.7869C36.4892 17.6344 37.0722 18.0232 37.1541 18.6174L39 32L34.6457 33.6524C34.1244 33.8502 33.542 33.5835 33.3512 33.0596L28.8752 20.7661Z" fill="url(#paint1_linear_21_1410)"/>
<rect x="31.3794" y="17.4058" width="8" height="14.67" rx="1" transform="rotate(-20.0064 31.3794 17.4058)" fill="#4FAE5A"/>
<path fill-rule="evenodd" clip-rule="evenodd" d="M35.5 12.95H35V14.05H35.3929C35.4984 14.1044 35.6032 14.2076 35.7017 14.3905C35.8234 14.6163 35.9133 14.9259 35.9686 15.2942C36.0572 15.8837 36.0457 16.5425 35.9974 17.0635C35.1361 17.2864 34.5 18.069 34.5 19C34.5 20.1045 35.3954 21 36.5 21C37.6046 21 38.5 20.1045 38.5 19C38.5 18.1041 37.911 17.3457 37.0992 17.0911C37.1482 16.5146 37.1567 15.7982 37.0564 15.1307C36.9909 14.6948 36.8745 14.2481 36.6701 13.8688C36.4634 13.485 36.1462 13.1356 35.6739 12.9782L35.5893 12.95H35.5Z" fill="#2C6835"/>
<path d="M21.5 39H10L15 33L21.5 39Z" fill="#EFBC91"/>
<defs>
<linearGradient id="paint0_linear_21_1410" x1="25" y1="14.5" x2="25" y2="39" gradientUnits="userSpaceOnUse">
<stop offset="0.515625" stop-color="#F9EAB9"/>
<stop offset="0.532719" stop-color="#FBF4DC"/>
</linearGradient>
<linearGradient id="paint1_linear_21_1410" x1="32.612" y1="18.2387" x2="33.5" y2="27.5" gradientUnits="userSpaceOnUse">
<stop offset="0.926392" stop-color="#F5E098"/>
<stop offset="1" stop-color="#F9EAB9"/>
</linearGradient>
</defs>
</svg>
