<svg width="47" height="46" viewBox="0 0 47 46" fill="none" xmlns="http://www.w3.org/2000/svg">
<path d="M23.5 46.0002C36.4787 46.0002 47 35.7028 47 23.0002C47 10.2977 36.4787 0.000244141 23.5 0.000244141C10.5213 0.000244141 0 10.2977 0 23.0002C0 35.7028 10.5213 46.0002 23.5 46.0002Z" fill="#CCEFDC"/>
<path fill-rule="evenodd" clip-rule="evenodd" d="M33.1995 25.6186C31.7709 25.6186 30.6033 24.4638 30.6033 23.0352C30.6033 21.6067 31.7477 20.4519 33.1737 20.4519H33.1995C34.6281 20.4519 35.7829 21.6067 35.7829 23.0352C35.7829 24.4638 34.6281 25.6186 33.1995 25.6186" fill="#130F26"/>
<path fill-rule="evenodd" clip-rule="evenodd" d="M23.8412 25.6186C22.4126 25.6186 21.2476 24.4638 21.2476 23.0352C21.2476 21.6067 22.3894 20.4519 23.818 20.4519H23.8412C25.2698 20.4519 26.4246 21.6067 26.4246 23.0352C26.4246 24.4638 25.2698 25.6186 23.8412 25.6186" fill="#130F26"/>
<path fill-rule="evenodd" clip-rule="evenodd" d="M14.4852 25.6186C13.0566 25.6186 11.8889 24.4638 11.8889 23.0352C11.8889 21.6067 13.0333 20.4519 14.4619 20.4519H14.4852C15.9137 20.4519 17.0685 21.6067 17.0685 23.0352C17.0685 24.4638 15.9137 25.6186 14.4852 25.6186" fill="#130F26"/>
</svg>
