<svg width="21" height="20" viewBox="0 0 21 20" fill="none" xmlns="http://www.w3.org/2000/svg">
<path fill-rule="evenodd" clip-rule="evenodd" d="M3 1.3H18C18.9389 1.3 19.7 2.06112 19.7 3V10.85H13.5874C13.1802 10.85 12.85 11.1802 12.85 11.5874C12.85 12.5609 12.0609 13.35 11.0874 13.35H9.41259C8.43914 13.35 7.65 12.5609 7.65 11.5874C7.65 11.1802 7.31985 10.85 6.91259 10.85H1.3V3C1.3 2.06112 2.06112 1.3 3 1.3ZM1.3 12.15V17C1.3 17.9389 2.06112 18.7 3 18.7H18C18.9389 18.7 19.7 17.9389 19.7 17V12.15H14.0984C13.8343 13.5727 12.5867 14.65 11.0874 14.65H9.41259C7.91334 14.65 6.66572 13.5727 6.40156 12.15H1.3ZM0 3C0 1.34315 1.34315 0 3 0H18C19.6569 0 21 1.34315 21 3V17C21 18.6569 19.6569 20 18 20H3C1.34315 20 0 18.6569 0 17V3Z" fill="#9A9A9A"/>
</svg>
