<svg width="51" height="50" viewBox="0 0 51 50" fill="none" xmlns="http://www.w3.org/2000/svg">
<g clip-path="url(#clip0_20_1325)">
<path d="M51 25C51 30.0893 49.4518 34.8214 46.8107 38.75C46.5375 39.1071 46.3554 39.4643 46.0821 39.8214C41.3464 45.9821 33.8786 50 25.5 50C17.1214 50 9.65357 45.9821 5.00893 39.9107C4.73571 39.5536 4.4625 39.1964 4.28036 38.8393C2.27679 35.8929 0.910714 32.6786 0.364286 29.1964C0.0910714 27.8571 0 26.4286 0 25C0 23.8393 0.0910714 22.7679 0.182143 21.6071C1.9125 9.46429 12.5679 0 25.5 0C39.6161 0 51 11.1607 51 25Z" fill="#CCEFDC"/>
<path d="M25.5 40.4463C38.4264 40.4463 48.9053 39.9267 48.9053 39.2857C48.9053 38.6446 38.4264 38.125 25.5 38.125C12.5736 38.125 2.0946 38.6446 2.0946 39.2857C2.0946 39.9267 12.5736 40.4463 25.5 40.4463Z" fill="#99E0B9"/>
<path fill-rule="evenodd" clip-rule="evenodd" d="M41.8929 38.7499H9.10715C7.46788 38.7499 6.19288 37.4999 6.19288 35.8928L6.10181 15.2678C6.10181 13.6606 7.37681 12.4106 9.01609 12.4106H41.8018C43.4411 12.4106 44.7161 13.6606 44.7161 15.2678L44.8072 35.8928C44.8072 37.4999 43.5322 38.7499 41.8929 38.7499Z" fill="white"/>
<path d="M28.8696 34.7322H22.4036V38.8393H28.8696V34.7322Z" fill="#F18275"/>
<path fill-rule="evenodd" clip-rule="evenodd" d="M27.6857 13.125H41.8928C43.1678 13.125 44.1696 14.1071 44.1696 15.3571V36.2499C44.1696 37.6785 42.9857 38.8393 41.5285 38.8393H27.6857C26.2285 38.8393 25.0446 37.6785 25.0446 36.2499V15.7143C25.0446 14.2857 26.2285 13.125 27.6857 13.125Z" fill="#FDF4D9"/>
<path d="M38.7878 13.2046L32.0486 13.2242L32.0663 19.1171L38.8056 19.0974L38.7878 13.2046Z" fill="#F39D56"/>
<path d="M41.2553 28.3928H29.6893V34.7322H41.2553V28.3928Z" fill="white"/>
<path d="M39.525 29.9106H31.3286V33.3035H39.525V29.9106Z" fill="#F39D56"/>
<path fill-rule="evenodd" clip-rule="evenodd" d="M8.74288 13.2144H22.4036C23.8607 13.2144 25.0447 14.3751 25.0447 15.8036V36.3394C25.0447 37.768 23.8607 38.9286 22.4036 38.9286H8.74288C7.28574 38.9286 6.10181 37.768 6.10181 36.3394V15.8036C6.10181 14.3751 7.28574 13.2144 8.74288 13.2144Z" fill="#F39D56"/>
<path fill-rule="evenodd" clip-rule="evenodd" d="M23.2232 28.4822L16.7572 26.7858L15.0268 26.8751V18.2144L7.83216 24.2858L6.10181 24.1072V27.3215V36.2501C6.10181 37.6786 7.28574 38.8394 8.74288 38.8394H22.4036C22.6768 38.8394 22.95 38.7501 23.2232 38.6608V28.4822Z" fill="#F38522"/>
<path fill-rule="evenodd" clip-rule="evenodd" d="M23.3143 28.4822C23.3143 28.4822 23.3143 28.5715 23.2232 28.5715C22.4036 29.7322 15.4821 27.2322 15.3 28.3929C15.0268 29.5536 23.5875 31.7858 22.95 32.9465C22.3125 34.1965 14.3893 29.9108 14.1161 30.5358C13.8429 31.1608 21.3107 35.7143 20.5821 36.4286C19.8536 37.2322 12.75 31.6965 12.2946 32.3215C11.9304 32.8572 14.8446 37.0536 15.2089 38.2143C15.3 38.4822 15.2089 38.5715 14.7536 38.3929C14.6625 38.3036 14.6625 38.3036 14.5714 38.2143C13.3875 37.3215 12.4768 36.2501 11.6571 35.0893C10.8375 33.9286 9.74464 32.8572 8.46964 32.0536C7.74107 31.6072 7.10357 31.1608 6.64821 30.7143L6.19286 30.6251L0.455357 29.1965C0.0910714 27.8572 0 26.4286 0 25.0001C0 23.8393 0.0910714 22.7679 0.182143 21.6072C1.73036 22.5893 3.64286 23.3036 5.19107 23.6608C5.46429 23.5715 5.7375 23.3929 6.10179 23.3036C6.28393 23.2143 6.46607 23.2143 6.73929 23.1251C13.4786 19.9108 13.4786 16.3393 14.5714 17.2322C15.0268 17.5893 15.2089 17.9465 15.1179 18.3929C15.0268 18.6608 14.9357 19.0179 14.7536 19.3751C14.2071 20.4465 13.2054 21.0715 12.6589 21.9643C12.1125 22.8572 12.75 23.7501 13.3875 24.4643C13.8429 24.9108 14.4804 25.2679 15.1179 25.5358C18.3054 27.0536 23.6786 27.2322 23.3143 28.4822Z" fill="white"/>
</g>
<defs>
<clipPath id="clip0_20_1325">
<rect width="51" height="50" fill="white"/>
</clipPath>
</defs>
</svg>
