<svg width="30" height="31" viewBox="0 0 30 31" fill="none" xmlns="http://www.w3.org/2000/svg">
<path fill-rule="evenodd" clip-rule="evenodd" d="M11.6981 5.19987L15.1947 11.1522L17.7862 7.2354C17.9192 7.04847 18.1797 7.0172 18.3666 7.15018C18.4487 7.18695 18.4714 7.24639 18.4941 7.30583L22.8868 16.3211L5.55581 19.8006L6.23611 9.80325C6.28697 9.57956 6.41994 9.39263 6.70308 9.42081C6.76252 9.39813 6.84465 9.4349 6.92677 9.47166L10.702 12.0491L11.6981 5.19987Z" fill="#2D6069"/>
<path fill-rule="evenodd" clip-rule="evenodd" d="M9.3049 15.1697L11.0068 4.10164C11.0576 3.87795 11.2727 3.72779 11.4964 3.77864C11.638 3.79273 11.7428 3.88894 11.7881 4.00783L17.6137 13.566L22.882 6.31272C23.0149 6.12579 23.2754 6.09452 23.4623 6.2275C23.5671 6.32371 23.6125 6.4426 23.6578 6.56149L23.785 23.6733C19.0896 26.8947 13.139 28.0754 7.48725 26.8267L1.08949 10.9495C0.998774 10.7117 1.10907 10.4653 1.28741 10.3973C1.40629 10.352 1.54786 10.366 1.65266 10.4622L9.3049 15.1697Z" fill="#469BAC"/>
<path fill-rule="evenodd" clip-rule="evenodd" d="M23.4991 6.14539C23.3122 6.01241 23.0517 6.04368 22.9187 6.23061L17.6732 13.5434L11.8249 3.92571C11.7796 3.80682 11.6974 3.77005 11.5559 3.75597C11.5559 3.75597 11.4964 3.77864 11.4143 3.74188L16.0291 26.9047C18.3052 26.4449 20.5046 25.6058 22.4859 24.3733C22.8793 24.1551 23.1906 23.9001 23.4652 23.7273C23.584 23.6819 23.6803 23.5771 23.7991 23.5318L23.6719 6.41993C23.6493 6.36049 23.5812 6.18216 23.4991 6.14539Z" fill="#BEE9FD"/>
</svg>
