<svg width="23" height="22" viewBox="0 0 23 22" fill="none" xmlns="http://www.w3.org/2000/svg">
<path fill-rule="evenodd" clip-rule="evenodd" d="M11.5 20.7C13.7042 20.7 15.7317 20.0398 17.3885 18.9226C15.211 17.2677 12.8032 16.8095 10.6256 17.022C8.59548 17.22 6.79203 17.9988 5.59335 18.9103C7.25347 20.035 9.28775 20.7 11.5 20.7ZM10.4994 15.7281C13.0537 15.4789 15.9116 16.0516 18.4481 18.1015C20.4549 16.3219 21.7 13.7861 21.7 11C21.7 5.69669 17.1884 1.3 11.5 1.3C5.81163 1.3 1.3 5.69669 1.3 11C1.3 13.7794 2.53924 16.3099 4.53765 18.0888C5.94844 16.9196 8.10546 15.9617 10.4994 15.7281ZM11.5 22C17.8513 22 23 17.0751 23 11C23 4.92487 17.8513 0 11.5 0C5.14873 0 0 4.92487 0 11C0 17.0751 5.14873 22 11.5 22ZM15 9C15 11.3109 13.3365 13 11.5 13C9.6635 13 8 11.3109 8 9C8 6.68915 9.6635 5 11.5 5C13.3365 5 15 6.68915 15 9ZM16 9C16 11.7614 13.9853 14 11.5 14C9.01472 14 7 11.7614 7 9C7 6.23858 9.01472 4 11.5 4C13.9853 4 16 6.23858 16 9Z" fill="#9A9A9A"/>
</svg>
