<svg width="51" height="50" viewBox="0 0 51 50" fill="none" xmlns="http://www.w3.org/2000/svg">
<g clip-path="url(#clip0_20_1262)">
<path d="M25.0526 50C38.8888 50 50.1053 38.8071 50.1053 25C50.1053 11.1929 38.8888 0 25.0526 0C11.2164 0 0 11.1929 0 25C0 38.8071 11.2164 50 25.0526 50Z" fill="#CCEFDC"/>
<path d="M25.0526 40.4463C37.7522 40.4463 48.0473 39.9267 48.0473 39.2857C48.0473 38.6446 37.7522 38.125 25.0526 38.125C12.353 38.125 2.05786 38.6446 2.05786 39.2857C2.05786 39.9267 12.353 40.4463 25.0526 40.4463Z" fill="#99E0B9"/>
<path fill-rule="evenodd" clip-rule="evenodd" d="M37.579 38.2142H13.1526C13.4211 34.8214 13.6895 31.5178 14.1369 28.4822C14.7632 24.5535 18.0737 21.6072 21.9211 21.6072H28.8105C32.7474 21.6072 36.0579 24.5535 36.5948 28.4822C37.2211 31.4286 37.4 34.7322 37.579 38.2142Z" fill="#FDF4D9"/>
<path fill-rule="evenodd" clip-rule="evenodd" d="M36.7737 28.4822C36.1473 24.5535 32.8368 21.6072 28.9894 21.6072H22.1C20.4894 21.6072 18.9684 22.1429 17.7158 22.9465C18.521 24.6429 20.1315 26.25 23.1737 27.8572C28.3631 30.625 33.7315 31.1607 37.0421 29.5535C36.8631 29.2857 36.7737 28.8392 36.7737 28.4822Z" fill="#F9D468"/>
<path fill-rule="evenodd" clip-rule="evenodd" d="M10.2894 34.2857C9.66313 32.7678 11.2737 30.625 13.9579 29.4642C16.6421 28.3035 19.2368 28.6607 19.8631 30.1785C20.4894 31.6964 18.8789 33.8392 16.1947 35C13.6 36.1607 10.9158 35.8035 10.2894 34.2857Z" fill="#00B14F"/>
<path fill-rule="evenodd" clip-rule="evenodd" d="M12.5263 33.3928C12.079 32.3213 13.1527 30.8035 14.9421 29.9999C16.7316 29.1963 18.5211 29.5535 18.9684 30.6249C19.4158 31.6963 18.3421 33.2142 16.5527 34.0178C14.8527 34.732 12.9737 34.4642 12.5263 33.3928Z" fill="#CCEFDC"/>
<path d="M34.3579 36.5179C37.9652 36.5179 40.8895 35.2786 40.8895 33.7499C40.8895 32.2214 37.9652 30.9822 34.3579 30.9822C30.7506 30.9822 27.8263 32.2214 27.8263 33.7499C27.8263 35.2786 30.7506 36.5179 34.3579 36.5179Z" fill="#F18275"/>
<path fill-rule="evenodd" clip-rule="evenodd" d="M0.715805 33.9285H25.5895V39.1963C25.5895 39.1963 11.3632 38.3928 0.626331 34.732C0.447384 34.6428 0.35791 34.4642 0.35791 34.2856C0.35791 34.0178 0.536858 33.9285 0.715805 33.9285Z" fill="#006A2F"/>
<path fill-rule="evenodd" clip-rule="evenodd" d="M50.0158 33.9285H25.1421V39.1963C25.1421 39.1963 39.3684 38.3928 50.1052 34.732C50.2842 34.6428 50.3737 34.4642 50.3737 34.2856C50.3737 34.0178 50.1947 33.9285 50.0158 33.9285Z" fill="#006A2F"/>
<path fill-rule="evenodd" clip-rule="evenodd" d="M36.0579 39.9998H14.6737C14.4053 39.9998 14.1369 39.8212 14.0474 39.5534L12.9737 37.6785H37.9369L36.8632 39.5534C36.5947 39.8212 36.3263 39.9998 36.0579 39.9998Z" fill="#008E3F"/>
<path fill-rule="evenodd" clip-rule="evenodd" d="M39.4579 23.0357C38.0263 27.2321 30.9579 28.5714 23.8895 25.9821C16.7316 23.3928 16.821 19.6428 16.821 15.0893C16.7316 7.76784 22.1 7.94641 29.2579 10.625C36.2368 13.2143 40.8895 18.8393 39.4579 23.0357Z" fill="white"/>
<path d="M31.2393 18.9777C32.2077 16.656 30.626 13.7906 27.7063 12.5779C24.7866 11.365 21.6346 12.2639 20.6662 14.5857C19.6977 16.9074 21.2794 19.7728 24.1991 20.9855C27.1187 22.1984 30.2707 21.2994 31.2393 18.9777Z" fill="#FADF8E"/>
<path fill-rule="evenodd" clip-rule="evenodd" d="M24.8737 19.7321C21.921 18.6606 20.1316 16.0714 20.8474 14.1071C21.5631 12.1428 24.5158 11.3392 27.4684 12.4999C30.421 13.5714 32.2105 16.1606 31.4947 18.1249C30.7789 20.1785 27.8263 20.8928 24.8737 19.7321Z" fill="#F39D56"/>
<path fill-rule="evenodd" clip-rule="evenodd" d="M26.2158 15.9821C24.6053 15.3571 23.4421 14.1964 23.8 13.3035C24.0684 12.4106 25.679 12.2321 27.379 12.8571C28.9895 13.4821 30.1526 14.6428 29.7947 15.5356C29.4369 16.4285 27.9158 16.6071 26.2158 15.9821Z" fill="#F7C942"/>
<path fill-rule="evenodd" clip-rule="evenodd" d="M11.0053 27.1429C9.5737 26.9643 8.76847 24.7321 9.12634 22.2321C9.48423 19.7321 10.9158 17.7679 12.2579 18.0357C13.6895 18.2143 14.4948 20.4464 14.1369 22.9464C13.8684 25.4464 12.4369 27.3214 11.0053 27.1429Z" fill="#00B14F"/>
<path fill-rule="evenodd" clip-rule="evenodd" d="M11.3632 24.8215C10.379 24.6429 9.75266 23.2143 10.0211 21.6072C10.2 20.0001 11.1842 18.7501 12.1684 18.9286C13.1527 19.1072 13.779 20.5358 13.5106 22.1429C13.3316 23.7501 12.3474 25.0001 11.3632 24.8215Z" fill="#CCEFDC"/>
</g>
<defs>
<clipPath id="clip0_20_1262">
<rect width="51" height="50" fill="white"/>
</clipPath>
</defs>
</svg>
