<svg width="21" height="20" viewBox="0 0 21 20" fill="none" xmlns="http://www.w3.org/2000/svg">
<path d="M4 12C4 14.2091 5.79086 16 8 16H18.2452C18.9877 16 19.7155 16.2066 20.3472 16.5968L21 17V1C21 0.447716 20.5523 0 20 0H5C4.44772 0 4 0.447716 4 1V12Z" fill="#377E4F"/>
<path d="M0 8C0 5.79086 1.79086 4 4 4H18.5279C18.8384 4 19.1446 3.92771 19.4223 3.78885L21 3V16C21 18.2091 19.2091 20 17 20H4C1.79086 20 0 18.2091 0 16V8Z" fill="#62B664"/>
<path d="M9.93693 15.992C8.8767 15.9052 7.94878 15.5186 7.24387 14.87C6.5782 14.2575 6.16975 13.48 6.03094 12.5613C5.99682 12.3355 5.98922 11.8051 6.01669 11.567C6.10582 10.7941 6.41149 10.1035 6.92777 9.50867C7.06691 9.34835 7.35601 9.07652 7.52247 8.9495C8.40483 8.27622 9.51858 7.94823 10.7241 8.00664C11.2929 8.0342 11.6833 8.09848 12.1203 8.23648C12.4236 8.33226 12.8595 8.53489 12.9939 8.6426L13.0279 8.66981L13.0241 8.97427L13.0202 9.27872L12.8763 9.1972C12.2162 8.82323 11.3789 8.6253 10.4591 8.6258C9.6795 8.62622 8.95996 8.81849 8.34734 9.19008C7.71701 9.5724 7.24207 10.1121 6.96404 10.7621C6.58764 11.6419 6.64588 12.7171 7.11695 13.585C7.65396 14.5744 8.64328 15.2109 9.8707 15.3568C10.2319 15.3998 10.7645 15.3802 11.1428 15.3102C12.3809 15.0809 13.1577 14.3015 13.3232 13.1227C13.3405 12.9997 13.3466 12.8515 13.3477 12.5298L13.3491 12.1009L11.8862 12.0977L10.4234 12.0945V11.7918V11.4891H12.2117H14L13.9999 12.0347C13.9997 12.6499 13.9851 12.9718 13.9457 13.2293C13.8268 14.0069 13.5122 14.6258 12.9933 15.1035C12.4673 15.5877 11.7942 15.8717 10.9304 15.974C10.7288 15.9978 10.1389 16.0086 9.93693 15.992Z" fill="white"/>
<path d="M10.0664 14.998C9.21696 14.9379 8.50165 14.6431 7.93852 14.121C7.77313 13.9677 7.67779 13.8612 7.55068 13.6878C7.07963 13.0452 6.89646 12.2059 7.05693 11.4255C7.26266 10.425 8.03067 9.59444 9.10637 9.20913C9.37991 9.11115 9.71743 9.03888 10.0382 9.00962C10.2463 8.99063 10.8052 9.00125 11.0259 9.02839C11.7365 9.11577 12.3709 9.31316 12.8792 9.60505L12.9999 9.67438L13 9.96874C13.0001 10.237 12.9979 10.2641 12.9758 10.2748C12.9568 10.2839 12.914 10.2651 12.7791 10.1882C12.2466 9.88477 11.6798 9.70752 11.0121 9.63565C10.7576 9.60826 10.2079 9.60474 10.0181 9.62928C8.79792 9.78711 7.92872 10.5763 7.77419 11.6666C7.73212 11.9633 7.76073 12.3818 7.84293 12.672C8.02649 13.3199 8.47006 13.8468 9.06392 14.1223C9.46689 14.3092 9.82122 14.3849 10.2942 14.3849C10.9565 14.3849 11.4892 14.2155 11.8546 13.8889C12.0914 13.6771 12.2298 13.4204 12.2613 13.1343L12.2712 13.0443H11.3241H10.377V12.7278V12.4113H11.6747H12.9725V12.6644C12.9725 13.0549 12.9378 13.2869 12.8402 13.5491C12.6425 14.0804 12.2232 14.5022 11.6471 14.7494C11.2725 14.9102 10.8737 14.9884 10.3791 14.9981C10.2451 15.0007 10.1044 15.0006 10.0664 14.9979V14.998Z" fill="white"/>
</svg>
