<svg width="51" height="50" viewBox="0 0 51 50" fill="none" xmlns="http://www.w3.org/2000/svg">
<path d="M25.5 50C39.5833 50 51 38.8071 51 25C51 11.1929 39.5833 0 25.5 0C11.4167 0 0 11.1929 0 25C0 38.8071 11.4167 50 25.5 50Z" fill="#CCEFDC"/>
<ellipse cx="25.5" cy="41.5" rx="21.5" ry="1.5" fill="#B3E2C4"/>
<path d="M7.91289 22.1031L6.34284 26.3563C6.15915 26.8539 6.53073 27.4254 6.73948 27.6489C9.19644 29.4093 14.4525 33.108 15.8209 33.8195C17.1893 34.5311 18.4954 34.7274 18.9775 34.7367L22.4811 33.6615L30.3643 31.2426L37.3717 29.0923C39.4739 28.4473 39.9664 26.0961 39.9498 25.0012L35.8513 11.6444C34.6878 7.85274 31.681 7.42392 30.3231 7.68346L13.2428 12.9246C11.053 13.5965 8.85767 19.456 7.91289 22.1031Z" fill="#E48A3D"/>
<path d="M9.7459 21.6071L8.17115 25.909C7.98691 26.4124 8.35866 26.996 8.56756 27.225C11.0269 29.0358 16.2879 32.8415 17.6578 33.5771C19.0277 34.3127 20.3355 34.5248 20.8182 34.5388L24.3273 33.4817L32.2229 31.1033L39.2411 28.9891C41.3466 28.3548 41.8412 25.9731 41.8253 24.8615L37.7291 11.2636C36.5662 7.40354 33.5556 6.93893 32.1956 7.18913L15.0886 12.3425C12.8954 13.0032 10.6936 18.9294 9.7459 21.6071Z" fill="#E7A163"/>
<path d="M8.02363 23.9998L5.02363 27.9998C4.67265 28.4677 4.87739 29.1947 5.02363 29.4998C7.02363 32.1664 11.3236 37.7998 12.5236 38.9998C13.7236 40.1998 15.0236 40.8331 15.5236 40.9998H19.5236H28.5236H36.5236C38.9236 40.9998 40.1903 38.6664 40.5236 37.4998V21.9998C40.5236 17.5998 37.5236 16.1664 36.0236 15.9998H16.5236C14.0236 15.9998 9.85697 21.4998 8.02363 23.9998Z" fill="url(#paint0_linear_21_1396)"/>
<path d="M10.8298 23.9998L7.82984 27.9998C7.47886 28.4677 7.6836 29.1947 7.82984 29.4998C9.82984 32.1664 14.1298 37.7998 15.3298 38.9998C16.5298 40.1998 17.8298 40.8331 18.3298 40.9998H22.3298H31.3298H39.3298C41.7298 40.9998 42.9965 38.6664 43.3298 37.4998V21.9998C43.3298 17.5998 40.3298 16.1664 38.8298 15.9998H19.3298C16.8298 15.9998 12.6632 21.4998 10.8298 23.9998Z" fill="url(#paint1_linear_21_1396)"/>
<circle cx="15.8298" cy="28.9998" r="3" fill="#D3EEDD"/>
<path d="M18.8298 29C18.8298 30.6569 17.4867 32 15.8298 32C14.173 32 12.8298 30.6569 12.8298 29C12.8298 27.3431 14.173 26 15.8298 26C17.4867 26 18.8298 27.3431 18.8298 29ZM14.3827 29C14.3827 29.7992 15.0306 30.4471 15.8298 30.4471C16.6291 30.4471 17.2769 29.7992 17.2769 29C17.2769 28.2008 16.6291 27.5529 15.8298 27.5529C15.0306 27.5529 14.3827 28.2008 14.3827 29Z" fill="#2C6935"/>
<g filter="url(#filter0_d_21_1396)">
<path d="M33.8298 22.5L26.3298 34H28.3298L35.8298 22.5H33.8298Z" fill="white"/>
<path d="M27.8298 26C27.8298 26.9091 27.5522 27.6937 27.1512 28.2284C26.7503 28.7629 26.2729 29 25.8298 29C25.3867 29 24.9093 28.7629 24.5085 28.2284C24.1075 27.6937 23.8298 26.9091 23.8298 26C23.8298 25.0909 24.1075 24.3063 24.5085 23.7716C24.9093 23.2371 25.3867 23 25.8298 23C26.2729 23 26.7503 23.2371 27.1512 23.7716C27.5522 24.3063 27.8298 25.0909 27.8298 26Z" stroke="white" stroke-width="2"/>
<path d="M37.8298 31C37.8298 31.9091 37.5522 32.6937 37.1512 33.2284C36.7503 33.7629 36.2729 34 35.8298 34C35.3867 34 34.9093 33.7629 34.5085 33.2284C34.1075 32.6937 33.8298 31.9091 33.8298 31C33.8298 30.0909 34.1075 29.3063 34.5085 28.7716C34.9093 28.2371 35.3867 28 35.8298 28C36.2729 28 36.7503 28.2371 37.1512 28.7716C37.5522 29.3063 37.8298 30.0909 37.8298 31Z" stroke="white" stroke-width="2"/>
</g>
<defs>
<filter id="filter0_d_21_1396" x="21.8298" y="22" width="17" height="13" filterUnits="userSpaceOnUse" color-interpolation-filters="sRGB">
<feFlood flood-opacity="0" result="BackgroundImageFix"/>
<feColorMatrix in="SourceAlpha" type="matrix" values="0 0 0 0 0 0 0 0 0 0 0 0 0 0 0 0 0 0 127 0" result="hardAlpha"/>
<feOffset dx="-1"/>
<feComposite in2="hardAlpha" operator="out"/>
<feColorMatrix type="matrix" values="0 0 0 0 0 0 0 0 0 0 0 0 0 0 0 0 0 0 0.25 0"/>
<feBlend mode="normal" in2="BackgroundImageFix" result="effect1_dropShadow_21_1396"/>
<feBlend mode="normal" in="SourceGraphic" in2="effect1_dropShadow_21_1396" result="shape"/>
</filter>
<linearGradient id="paint0_linear_21_1396" x1="22.6767" y1="15.9998" x2="22.6767" y2="40.9998" gradientUnits="userSpaceOnUse">
<stop offset="0.519975" stop-color="#3B8B47"/>
<stop offset="0.520276" stop-color="#2C6835"/>
</linearGradient>
<linearGradient id="paint1_linear_21_1396" x1="25.4829" y1="15.9998" x2="25.4829" y2="40.9998" gradientUnits="userSpaceOnUse">
<stop offset="0.512611" stop-color="#4FAE5A"/>
<stop offset="0.514379" stop-color="#3E8B48"/>
</linearGradient>
</defs>
</svg>
