<svg width="22" height="22" viewBox="0 0 22 22" fill="none" xmlns="http://www.w3.org/2000/svg">
<path fill-rule="evenodd" clip-rule="evenodd" d="M1.75 3V7H0.25V3C0.25 1.48122 1.48122 0.25 3 0.25H7V1.75H3C2.30964 1.75 1.75 2.30964 1.75 3ZM0.0961914 11C0.0961914 10.5858 0.431978 10.25 0.846191 10.25H21.2274C21.6416 10.25 21.9774 10.5858 21.9774 11C21.9774 11.4142 21.6416 11.75 21.2274 11.75H0.846191C0.431978 11.75 0.0961914 11.4142 0.0961914 11ZM1.75 15V19C1.75 19.6904 2.30964 20.25 3 20.25H7V21.75H3C1.48122 21.75 0.25 20.5188 0.25 19V15H1.75ZM20.25 7V3C20.25 2.30964 19.6904 1.75 19 1.75H15V0.25H19C20.5188 0.25 21.75 1.48122 21.75 3V7H20.25ZM20.25 19V15H21.75V19C21.75 20.5188 20.5188 21.75 19 21.75H15V20.25H19C19.6904 20.25 20.25 19.6904 20.25 19Z" fill="#707070"/>
</svg>
