<svg width="23" height="22" viewBox="0 0 23 22" fill="none" xmlns="http://www.w3.org/2000/svg">
<path d="M1.5 4.5V18.0076C1.5 18.3346 1.5291 18.6657 1.66912 18.9613C1.99276 19.6444 2.71831 20.5 4 20.5C5.6 20.5 14.6667 20.5 19 20.5C19.8333 20.5 21.5 20.1 21.5 18.5C21.5 16.9746 21.5 10.4808 21.5 6.99C21.5 6.66296 21.4689 6.33585 21.3425 6.03425C21.0563 5.35188 20.4592 4.5 19.5 4.5C19.3972 4.5 19.2275 4.5 19 4.5M1.5 4.5V3.5C1.5 2.39543 2.39543 1.5 3.5 1.5H4.5H16.3431C17.404 1.5 18.4671 1.9333 18.7754 2.94839C18.9081 3.38521 19 3.90583 19 4.5M1.5 4.5H3C7.57148 4.5 16.5734 4.5 19 4.5" stroke="#9A9A9A" stroke-width="1.3"/>
<path d="M19.5 12.25C19.5 13.4926 18.4926 14.5 17.25 14.5C16.0074 14.5 15 13.4926 15 12.25C15 11.0074 16.0074 10 17.25 10C18.4926 10 19.5 11.0074 19.5 12.25ZM16.2681 12.25C16.2681 12.7923 16.7077 13.2319 17.25 13.2319C17.7923 13.2319 18.2319 12.7923 18.2319 12.25C18.2319 11.7077 17.7923 11.2681 17.25 11.2681C16.7077 11.2681 16.2681 11.7077 16.2681 12.25Z" fill="#9A9A9A"/>
</svg>
