<svg width="21" height="21" viewBox="0 0 21 21" fill="none" xmlns="http://www.w3.org/2000/svg">
<path fill-rule="evenodd" clip-rule="evenodd" d="M14.2336 13.0146C15.3386 11.6431 16 9.89893 16 8C16 3.58154 12.4183 0 8 0C3.58173 0 0 3.58154 0 8C0 12.4185 3.58173 16 8 16C9.8941 16 11.6345 15.3418 13.0049 14.2417L18.7815 20.021C19.1204 20.3604 19.6701 20.3604 20.0092 20.0215C20.3484 19.6826 20.3485 19.1328 20.0096 18.7935L14.2336 13.0146ZM8 14.4639C4.42999 14.4639 1.53595 11.5698 1.53595 8C1.53595 4.43018 4.42999 1.53613 8 1.53613C11.57 1.53613 14.4641 4.43018 14.4641 8C14.4641 11.5698 11.57 14.4639 8 14.4639Z" fill="#707070"/>
</svg>
