<svg width="14" height="12" viewBox="0 0 14 12" fill="none" xmlns="http://www.w3.org/2000/svg">
<path fill-rule="evenodd" clip-rule="evenodd" d="M1.74951 3V10C1.74951 10.5515 2.27276 11 2.91618 11H11.0828C11.7263 11 12.2495 10.5515 12.2495 10V3C12.2495 2.4485 11.7263 2 11.0828 2H9.91618V1.58333C9.91618 1.26117 9.65501 1 9.33284 1C9.01068 1 8.74951 1.26117 8.74951 1.58333V2H5.24951V1.58333C5.24951 1.26117 4.98834 1 4.66618 1C4.34401 1 4.08284 1.26117 4.08284 1.58333V2H2.91618C2.27276 2 1.74951 2.4485 1.74951 3ZM11.0834 10H2.91559V5H11.0834V10Z" fill="#2E3A59"/>
</svg>
