<svg width="51" height="50" viewBox="0 0 51 50" fill="none" xmlns="http://www.w3.org/2000/svg">
<g clip-path="url(#clip0_20_1337)">
<path d="M24.1016 50C36.822 50 47.1339 38.8071 47.1339 25C47.1339 11.1929 36.822 0 24.1016 0C11.3812 0 1.06934 11.1929 1.06934 25C1.06934 38.8071 11.3812 50 24.1016 50Z" fill="#CCEFDC"/>
<path d="M25.2532 40.4463C39.2002 40.4463 50.5065 39.9267 50.5065 39.2857C50.5065 38.6446 39.2002 38.125 25.2532 38.125C11.3063 38.125 0 38.6446 0 39.2857C0 39.9267 11.3063 40.4463 25.2532 40.4463Z" fill="#99E0B9"/>
<path fill-rule="evenodd" clip-rule="evenodd" d="M8.88388 34.6428H44.7484C44.7484 35.9821 43.7613 37.0535 42.6097 37.0535H8.88388V34.6428Z" fill="#4B4B4B"/>
<path fill-rule="evenodd" clip-rule="evenodd" d="M40.9645 37.8571C40.3065 36.9642 39.9774 35.6249 39.9774 34.1964C39.9774 31.5178 41.2935 29.2856 42.8565 29.2856C44.4194 29.2856 45.7355 31.4285 45.7355 34.1964C45.7355 36.9642 44.4194 39.1071 42.8565 39.1071H40.1419V37.9464H40.9645V37.8571Z" fill="#4B4B4B"/>
<path d="M40.1419 39.018C41.732 39.018 43.021 36.8193 43.021 34.1072C43.021 31.3951 41.732 29.1965 40.1419 29.1965C38.5519 29.1965 37.2629 31.3951 37.2629 34.1072C37.2629 36.8193 38.5519 39.018 40.1419 39.018Z" fill="#4B4B4B"/>
<path fill-rule="evenodd" clip-rule="evenodd" d="M49.8484 29.3751L48.5323 26.4287C48.2855 25.893 47.8742 25.5357 47.3806 25.2679L41.6226 22.6787C38.1677 18.8393 33.479 16.6965 28.5435 16.6965H12.75C16.5339 16.6965 20.071 18.9287 21.9629 22.5001L22.1274 22.768L27.8855 25.3572C28.379 25.6251 28.7903 25.9822 28.9548 26.518L30.271 29.4644C30.6 30.1787 30.6 30.893 30.271 31.6072L29.2016 33.9287C29.0371 34.1964 29.0371 34.5537 29.2016 34.8215C29.3661 35.0893 29.6129 35.268 29.8597 35.268H46.8871C47.7097 35.268 48.45 34.7322 48.8613 33.9287L49.9306 31.5179C50.1774 30.8929 50.1774 30.0894 49.8484 29.3751Z" fill="#66D095"/>
<path fill-rule="evenodd" clip-rule="evenodd" d="M48.779 26.875H29.2016L30.3532 29.375C30.6822 30.0893 30.6822 30.8036 30.3532 31.5179L29.2016 33.9286C29.1193 34.1071 28.2968 34.5536 26.7339 35.2679C28.708 35.2679 29.6951 35.2679 29.9419 35.2679H46.8871C47.7097 35.2679 48.45 34.7321 48.8613 33.9286L49.9306 31.5179C50.2597 30.8036 50.2597 30.0893 49.9306 29.375L48.779 26.875Z" fill="#00B14F"/>
<path fill-rule="evenodd" clip-rule="evenodd" d="M12.5032 22.6786H41.7048C40.3887 21.25 38.9081 20 37.2629 19.1072H12.5032V22.6786Z" fill="#00B14F"/>
<path fill-rule="evenodd" clip-rule="evenodd" d="M6.0871 37.8571C5.42904 36.9642 5.10001 35.6249 5.10001 34.1964C5.10001 31.5178 6.41614 29.2856 7.97904 29.2856C9.54193 29.2856 10.8581 31.4285 10.8581 34.1964C10.8581 36.9642 9.54193 39.1071 7.97904 39.1071H5.18226V37.9464H6.0871V37.8571Z" fill="#4B4B4B"/>
<path fill-rule="evenodd" clip-rule="evenodd" d="M20.8113 37.8571C20.1532 36.9642 19.8242 35.6249 19.8242 34.1964C19.8242 31.5178 21.1403 29.2856 22.7032 29.2856C24.2661 29.2856 25.5823 31.4285 25.5823 34.1964C25.5823 36.9642 24.2661 39.1071 22.7032 39.1071H19.9887V37.9464H20.8113V37.8571Z" fill="#4B4B4B"/>
<path fill-rule="evenodd" clip-rule="evenodd" d="M30.3532 29.375L29.0371 26.4286C28.7903 25.8929 28.379 25.5357 27.9677 25.2679L22.2097 22.6786L22.0452 22.4107C20.1532 18.8393 16.6161 16.6072 12.75 16.6072H12.1742C8.71935 16.6072 5.51129 18.6607 3.78387 21.875C3.5371 22.3215 3.12581 22.7679 2.63226 22.9465L2.38549 23.0357C1.06936 23.5715 0.16452 24.9107 0.16452 26.4286V30.8929C0.16452 32.6786 1.39839 34.1965 3.04355 34.4643L8.88387 35.2679H27.3097C28.1323 35.2679 28.8726 34.7322 29.2839 33.9286L30.3532 31.5179C30.6 30.8929 30.6 30.0893 30.3532 29.375Z" fill="#008E3F"/>
<path d="M5.01777 39.018C6.60781 39.018 7.8968 36.8193 7.8968 34.1072C7.8968 31.3951 6.60781 29.1965 5.01777 29.1965C3.42772 29.1965 2.13873 31.3951 2.13873 34.1072C2.13873 36.8193 3.42772 39.018 5.01777 39.018Z" fill="#4B4B4B"/>
<path d="M19.9887 39.018C21.5788 39.018 22.8677 36.8193 22.8677 34.1072C22.8677 31.3951 21.5788 29.1965 19.9887 29.1965C18.3987 29.1965 17.1097 31.3951 17.1097 34.1072C17.1097 36.8193 18.3987 39.018 19.9887 39.018Z" fill="#4B4B4B"/>
<path d="M4.85326 36.6964C5.53471 36.6964 6.08713 35.5372 6.08713 34.1071C6.08713 32.6771 5.53471 31.5178 4.85326 31.5178C4.17181 31.5178 3.61938 32.6771 3.61938 34.1071C3.61938 35.5372 4.17181 36.6964 4.85326 36.6964Z" fill="white"/>
<path d="M19.8242 36.6964C20.5057 36.6964 21.0581 35.5372 21.0581 34.1071C21.0581 32.6771 20.5057 31.5178 19.8242 31.5178C19.1428 31.5178 18.5903 32.6771 18.5903 34.1071C18.5903 35.5372 19.1428 36.6964 19.8242 36.6964Z" fill="white"/>
<path fill-rule="evenodd" clip-rule="evenodd" d="M2.55 27.8572L3.37258 25.0894H0.411294C0.246778 25.5358 0.16452 25.9822 0.16452 26.5179V28.7501H1.56291C1.9742 28.6608 2.38549 28.3036 2.55 27.8572Z" fill="#EE6352"/>
<path fill-rule="evenodd" clip-rule="evenodd" d="M6.58066 22.6785H22.1274L21.9629 22.4107C21.2226 21.0714 20.3177 20 19.2484 19.0178H9.45967C8.39032 19.0178 7.32098 19.6428 6.74517 20.625L6.08711 21.6964C6.00485 21.875 5.92259 22.1428 6.08711 22.3214C6.16937 22.5 6.41614 22.6785 6.58066 22.6785Z" fill="#4B4B4B"/>
<path fill-rule="evenodd" clip-rule="evenodd" d="M37.4274 28.0357L43.9258 30.4464L47.4629 28.0357V26.875H36.3581L37.4274 28.0357Z" fill="#4B4B4B"/>
<path fill-rule="evenodd" clip-rule="evenodd" d="M38.9903 28.6607L37.3452 26.875H29.1194L30.271 29.4643C30.3532 29.6429 30.4355 29.8214 30.4355 30L36.6048 31.25L38.9903 28.6607Z" fill="white"/>
<path fill-rule="evenodd" clip-rule="evenodd" d="M29.2016 26.875H25.5822L27.3097 29.2857L30.4355 29.9107C30.3532 29.7321 30.3532 29.5536 30.271 29.375L29.2016 26.875Z" fill="#F7C942"/>
<path fill-rule="evenodd" clip-rule="evenodd" d="M49.1903 26.875H47.4629L46.8871 28.4821L48.45 30.9821L49.8484 28.0357L49.1903 26.875Z" fill="white"/>
<path fill-rule="evenodd" clip-rule="evenodd" d="M47.8742 35.0001L47.1339 32.5001C46.9694 32.0537 46.5581 31.6965 46.1468 31.6965H38.7436C38.4145 31.6965 38.0032 31.8751 37.8387 32.2322L35.9468 35.268H46.8871C47.2161 35.3572 47.5452 35.268 47.8742 35.0001Z" fill="#4B4B4B"/>
</g>
<defs>
<clipPath id="clip0_20_1337">
<rect width="51" height="50" fill="white"/>
</clipPath>
</defs>
</svg>
